<?xml version="1.0" encoding="utf-8" standalone="no"?>
<!DOCTYPE svg PUBLIC "-//W3C//DTD SVG 1.1//EN"
  "http://www.w3.org/Graphics/SVG/1.1/DTD/svg11.dtd">
<!-- Created with matplotlib (https://matplotlib.org/) -->
<svg height="720pt" version="1.1" viewBox="0 0 720 720" width="720pt" xmlns="http://www.w3.org/2000/svg" xmlns:xlink="http://www.w3.org/1999/xlink">
 <defs>
  <style type="text/css">
*{stroke-linecap:butt;stroke-linejoin:round;}
  </style>
 </defs>
 <g id="figure_1">
  <g id="patch_1">
   <path d="M 0 720 
L 720 720 
L 720 0 
L 0 0 
z
" style="fill:none;"/>
  </g>
  <g id="axes_1">
   <g id="patch_2">
    <path d="M 90 640.8 
L 648 640.8 
L 648 86.4 
L 90 86.4 
z
" style="fill:none;"/>
   </g>
   <g id="matplotlib.axis_1">
    <g id="xtick_1">
     <g id="line2d_1">
      <path clip-path="url(#p0213988531)" d="M 90 640.8 
L 90 86.4 
" style="fill:none;stroke:#b0b0b0;stroke-linecap:square;stroke-width:0.8;"/>
     </g>
     <g id="line2d_2">
      <defs>
       <path d="M 0 0 
L 0 3.5 
" id="mf7ff6a3a10" style="stroke:#000000;stroke-width:0.8;"/>
      </defs>
      <g>
       <use style="stroke:#000000;stroke-width:0.8;" x="90" xlink:href="#mf7ff6a3a10" y="640.8"/>
      </g>
     </g>
     <g id="text_1">
      <!-- 0 -->
      <defs>
       <path d="M 31.78125 3.421875 
Q 39.265625 3.421875 42.96875 11.625 
Q 46.6875 19.828125 46.6875 36.375 
Q 46.6875 52.984375 42.96875 61.1875 
Q 39.265625 69.390625 31.78125 69.390625 
Q 24.3125 69.390625 20.59375 61.1875 
Q 16.890625 52.984375 16.890625 36.375 
Q 16.890625 19.828125 20.59375 11.625 
Q 24.3125 3.421875 31.78125 3.421875 
z
M 31.78125 -1.421875 
Q 19.921875 -1.421875 13.25 8.53125 
Q 6.59375 18.5 6.59375 36.375 
Q 6.59375 54.296875 13.25 64.25 
Q 19.921875 74.21875 31.78125 74.21875 
Q 43.703125 74.21875 50.34375 64.25 
Q 56.984375 54.296875 56.984375 36.375 
Q 56.984375 18.5 50.34375 8.53125 
Q 43.703125 -1.421875 31.78125 -1.421875 
z
" id="DejaVuSerif-48"/>
      </defs>
      <g transform="translate(87.455 653.87875)scale(0.08 -0.08)">
       <use xlink:href="#DejaVuSerif-48"/>
      </g>
     </g>
    </g>
    <g id="xtick_2">
     <g id="line2d_3">
      <path clip-path="url(#p0213988531)" d="M 201.6 640.8 
L 201.6 86.4 
" style="fill:none;stroke:#b0b0b0;stroke-linecap:square;stroke-width:0.8;"/>
     </g>
     <g id="line2d_4">
      <g>
       <use style="stroke:#000000;stroke-width:0.8;" x="201.6" xlink:href="#mf7ff6a3a10" y="640.8"/>
      </g>
     </g>
     <g id="text_2">
      <!-- 20 -->
      <defs>
       <path d="M 12.796875 55.515625 
L 7.328125 55.515625 
L 7.328125 68.5 
Q 12.546875 71.296875 17.84375 72.75 
Q 23.140625 74.21875 28.21875 74.21875 
Q 39.59375 74.21875 46.1875 68.703125 
Q 52.78125 63.1875 52.78125 53.71875 
Q 52.78125 43.015625 37.84375 28.125 
Q 36.671875 27 36.078125 26.421875 
L 17.671875 8.015625 
L 48.09375 8.015625 
L 48.09375 17 
L 53.8125 17 
L 53.8125 0 
L 6.78125 0 
L 6.78125 5.328125 
L 28.90625 27.390625 
Q 36.234375 34.71875 39.359375 40.84375 
Q 42.484375 46.96875 42.484375 53.71875 
Q 42.484375 61.078125 38.640625 65.234375 
Q 34.8125 69.390625 28.078125 69.390625 
Q 21.09375 69.390625 17.28125 65.921875 
Q 13.484375 62.453125 12.796875 55.515625 
z
" id="DejaVuSerif-50"/>
      </defs>
      <g transform="translate(196.51 653.87875)scale(0.08 -0.08)">
       <use xlink:href="#DejaVuSerif-50"/>
       <use x="63.623047" xlink:href="#DejaVuSerif-48"/>
      </g>
     </g>
    </g>
    <g id="xtick_3">
     <g id="line2d_5">
      <path clip-path="url(#p0213988531)" d="M 313.2 640.8 
L 313.2 86.4 
" style="fill:none;stroke:#b0b0b0;stroke-linecap:square;stroke-width:0.8;"/>
     </g>
     <g id="line2d_6">
      <g>
       <use style="stroke:#000000;stroke-width:0.8;" x="313.2" xlink:href="#mf7ff6a3a10" y="640.8"/>
      </g>
     </g>
     <g id="text_3">
      <!-- 40 -->
      <defs>
       <path d="M 34.90625 24.703125 
L 34.90625 63.484375 
L 10.015625 24.703125 
z
M 56.390625 0 
L 23.1875 0 
L 23.1875 5.171875 
L 34.90625 5.171875 
L 34.90625 19.484375 
L 3.078125 19.484375 
L 3.078125 24.8125 
L 35.015625 74.21875 
L 44.671875 74.21875 
L 44.671875 24.703125 
L 58.59375 24.703125 
L 58.59375 19.484375 
L 44.671875 19.484375 
L 44.671875 5.171875 
L 56.390625 5.171875 
z
" id="DejaVuSerif-52"/>
      </defs>
      <g transform="translate(308.11 653.87875)scale(0.08 -0.08)">
       <use xlink:href="#DejaVuSerif-52"/>
       <use x="63.623047" xlink:href="#DejaVuSerif-48"/>
      </g>
     </g>
    </g>
    <g id="xtick_4">
     <g id="line2d_7">
      <path clip-path="url(#p0213988531)" d="M 424.8 640.8 
L 424.8 86.4 
" style="fill:none;stroke:#b0b0b0;stroke-linecap:square;stroke-width:0.8;"/>
     </g>
     <g id="line2d_8">
      <g>
       <use style="stroke:#000000;stroke-width:0.8;" x="424.8" xlink:href="#mf7ff6a3a10" y="640.8"/>
      </g>
     </g>
     <g id="text_4">
      <!-- 60 -->
      <defs>
       <path d="M 32.71875 3.421875 
Q 39.59375 3.421875 43.296875 8.46875 
Q 47.015625 13.53125 47.015625 23 
Q 47.015625 32.46875 43.296875 37.515625 
Q 39.59375 42.578125 32.71875 42.578125 
Q 25.734375 42.578125 22.0625 37.6875 
Q 18.40625 32.8125 18.40625 23.578125 
Q 18.40625 13.875 22.109375 8.640625 
Q 25.828125 3.421875 32.71875 3.421875 
z
M 16.796875 40.140625 
Q 20.125 43.796875 24.3125 45.59375 
Q 28.515625 47.40625 33.796875 47.40625 
Q 44.671875 47.40625 51 40.859375 
Q 57.328125 34.328125 57.328125 23 
Q 57.328125 11.921875 50.515625 5.25 
Q 43.703125 -1.421875 32.328125 -1.421875 
Q 19.96875 -1.421875 13.328125 7.78125 
Q 6.6875 17 6.6875 34.078125 
Q 6.6875 53.21875 14.546875 63.71875 
Q 22.40625 74.21875 36.71875 74.21875 
Q 40.578125 74.21875 44.828125 73.484375 
Q 49.078125 72.75 53.515625 71.296875 
L 53.515625 59.28125 
L 48 59.28125 
Q 47.40625 64.203125 44.234375 66.796875 
Q 41.0625 69.390625 35.6875 69.390625 
Q 26.21875 69.390625 21.578125 62.203125 
Q 16.9375 55.03125 16.796875 40.140625 
z
" id="DejaVuSerif-54"/>
      </defs>
      <g transform="translate(419.71 653.87875)scale(0.08 -0.08)">
       <use xlink:href="#DejaVuSerif-54"/>
       <use x="63.623047" xlink:href="#DejaVuSerif-48"/>
      </g>
     </g>
    </g>
    <g id="xtick_5">
     <g id="line2d_9">
      <path clip-path="url(#p0213988531)" d="M 536.4 640.8 
L 536.4 86.4 
" style="fill:none;stroke:#b0b0b0;stroke-linecap:square;stroke-width:0.8;"/>
     </g>
     <g id="line2d_10">
      <g>
       <use style="stroke:#000000;stroke-width:0.8;" x="536.4" xlink:href="#mf7ff6a3a10" y="640.8"/>
      </g>
     </g>
     <g id="text_5">
      <!-- 80 -->
      <defs>
       <path d="M 46.578125 19.921875 
Q 46.578125 27.734375 42.6875 32.046875 
Q 38.8125 36.375 31.78125 36.375 
Q 24.75 36.375 20.875 32.046875 
Q 17 27.734375 17 19.921875 
Q 17 12.0625 20.875 7.734375 
Q 24.75 3.421875 31.78125 3.421875 
Q 38.8125 3.421875 42.6875 7.734375 
Q 46.578125 12.0625 46.578125 19.921875 
z
M 44.578125 55.328125 
Q 44.578125 61.96875 41.203125 65.671875 
Q 37.84375 69.390625 31.78125 69.390625 
Q 25.78125 69.390625 22.390625 65.671875 
Q 19 61.96875 19 55.328125 
Q 19 48.640625 22.390625 44.921875 
Q 25.78125 41.21875 31.78125 41.21875 
Q 37.84375 41.21875 41.203125 44.921875 
Q 44.578125 48.640625 44.578125 55.328125 
z
M 39.3125 38.8125 
Q 47.609375 37.703125 52.25 32.6875 
Q 56.890625 27.6875 56.890625 19.921875 
Q 56.890625 9.671875 50.390625 4.125 
Q 43.890625 -1.421875 31.78125 -1.421875 
Q 19.734375 -1.421875 13.203125 4.125 
Q 6.6875 9.671875 6.6875 19.921875 
Q 6.6875 27.6875 11.328125 32.6875 
Q 15.96875 37.703125 24.3125 38.8125 
Q 16.9375 40.140625 13 44.40625 
Q 9.078125 48.6875 9.078125 55.328125 
Q 9.078125 64.109375 15.125 69.15625 
Q 21.1875 74.21875 31.78125 74.21875 
Q 42.390625 74.21875 48.4375 69.15625 
Q 54.5 64.109375 54.5 55.328125 
Q 54.5 48.6875 50.5625 44.40625 
Q 46.625 40.140625 39.3125 38.8125 
z
" id="DejaVuSerif-56"/>
      </defs>
      <g transform="translate(531.31 653.87875)scale(0.08 -0.08)">
       <use xlink:href="#DejaVuSerif-56"/>
       <use x="63.623047" xlink:href="#DejaVuSerif-48"/>
      </g>
     </g>
    </g>
    <g id="xtick_6">
     <g id="line2d_11">
      <path clip-path="url(#p0213988531)" d="M 648 640.8 
L 648 86.4 
" style="fill:none;stroke:#b0b0b0;stroke-linecap:square;stroke-width:0.8;"/>
     </g>
     <g id="line2d_12">
      <g>
       <use style="stroke:#000000;stroke-width:0.8;" x="648" xlink:href="#mf7ff6a3a10" y="640.8"/>
      </g>
     </g>
     <g id="text_6">
      <!-- 100 -->
      <defs>
       <path d="M 14.203125 0 
L 14.203125 5.171875 
L 26.90625 5.171875 
L 26.90625 65.828125 
L 12.203125 56.296875 
L 12.203125 62.703125 
L 29.984375 74.21875 
L 36.71875 74.21875 
L 36.71875 5.171875 
L 49.421875 5.171875 
L 49.421875 0 
z
" id="DejaVuSerif-49"/>
      </defs>
      <g transform="translate(640.365 653.87875)scale(0.08 -0.08)">
       <use xlink:href="#DejaVuSerif-49"/>
       <use x="63.623047" xlink:href="#DejaVuSerif-48"/>
       <use x="127.246094" xlink:href="#DejaVuSerif-48"/>
      </g>
     </g>
    </g>
    <g id="text_7">
     <!-- loss (pct) -->
     <defs>
      <path d="M 20.515625 5.171875 
L 29 5.171875 
L 29 0 
L 2.875 0 
L 2.875 5.171875 
L 11.53125 5.171875 
L 11.53125 70.796875 
L 2.875 70.796875 
L 2.875 75.984375 
L 20.515625 75.984375 
z
" id="DejaVuSerif-108"/>
      <path d="M 30.078125 3.421875 
Q 37.3125 3.421875 40.984375 9.125 
Q 44.671875 14.84375 44.671875 25.984375 
Q 44.671875 37.109375 40.984375 42.796875 
Q 37.3125 48.484375 30.078125 48.484375 
Q 22.859375 48.484375 19.171875 42.796875 
Q 15.484375 37.109375 15.484375 25.984375 
Q 15.484375 14.84375 19.1875 9.125 
Q 22.90625 3.421875 30.078125 3.421875 
z
M 30.078125 -1.421875 
Q 18.75 -1.421875 11.859375 6.078125 
Q 4.984375 13.578125 4.984375 25.984375 
Q 4.984375 38.375 11.84375 45.84375 
Q 18.703125 53.328125 30.078125 53.328125 
Q 41.453125 53.328125 48.3125 45.84375 
Q 55.171875 38.375 55.171875 25.984375 
Q 55.171875 13.578125 48.3125 6.078125 
Q 41.453125 -1.421875 30.078125 -1.421875 
z
" id="DejaVuSerif-111"/>
      <path d="M 5.609375 2.875 
L 5.609375 14.984375 
L 10.796875 14.984375 
Q 10.984375 9.1875 14.421875 6.296875 
Q 17.875 3.421875 24.609375 3.421875 
Q 30.671875 3.421875 33.84375 5.6875 
Q 37.015625 7.953125 37.015625 12.3125 
Q 37.015625 15.71875 34.6875 17.8125 
Q 32.375 19.921875 24.90625 22.3125 
L 18.40625 24.515625 
Q 11.71875 26.65625 8.71875 29.875 
Q 5.71875 33.109375 5.71875 38.09375 
Q 5.71875 45.21875 10.9375 49.265625 
Q 16.15625 53.328125 25.390625 53.328125 
Q 29.5 53.328125 34.03125 52.25 
Q 38.578125 51.171875 43.40625 49.125 
L 43.40625 37.796875 
L 38.234375 37.796875 
Q 38.03125 42.828125 34.703125 45.65625 
Q 31.390625 48.484375 25.6875 48.484375 
Q 20.015625 48.484375 17.109375 46.484375 
Q 14.203125 44.484375 14.203125 40.484375 
Q 14.203125 37.203125 16.40625 35.21875 
Q 18.609375 33.25 25.203125 31.203125 
L 32.328125 29 
Q 39.703125 26.703125 42.9375 23.265625 
Q 46.1875 19.828125 46.1875 14.40625 
Q 46.1875 7.03125 40.546875 2.796875 
Q 34.90625 -1.421875 25 -1.421875 
Q 19.96875 -1.421875 15.1875 -0.34375 
Q 10.40625 0.734375 5.609375 2.875 
z
" id="DejaVuSerif-115"/>
      <path id="DejaVuSerif-32"/>
      <path d="M 31.890625 -15.578125 
Q 20.015625 -10.25 13.953125 1.296875 
Q 7.90625 12.84375 7.90625 30.171875 
Q 7.90625 47.5625 13.953125 59.109375 
Q 20.015625 70.65625 31.890625 75.984375 
L 31.890625 71.1875 
Q 24.359375 66.015625 21.09375 56.609375 
Q 17.828125 47.21875 17.828125 30.171875 
Q 17.828125 13.1875 21.09375 3.78125 
Q 24.359375 -5.609375 31.890625 -10.796875 
z
" id="DejaVuSerif-40"/>
      <path d="M 20.515625 28.515625 
L 20.515625 23.390625 
Q 20.515625 14.015625 24.09375 9.109375 
Q 27.6875 4.203125 34.515625 4.203125 
Q 41.40625 4.203125 44.9375 9.71875 
Q 48.484375 15.234375 48.484375 25.984375 
Q 48.484375 36.765625 44.9375 42.234375 
Q 41.40625 47.703125 34.515625 47.703125 
Q 27.6875 47.703125 24.09375 42.765625 
Q 20.515625 37.84375 20.515625 28.515625 
z
M 11.53125 46.6875 
L 2.875 46.6875 
L 2.875 51.90625 
L 20.515625 51.90625 
L 20.515625 43.796875 
Q 23.140625 48.6875 27.21875 51 
Q 31.296875 53.328125 37.3125 53.328125 
Q 46.875 53.328125 52.921875 45.75 
Q 58.984375 38.1875 58.984375 25.984375 
Q 58.984375 13.765625 52.921875 6.171875 
Q 46.875 -1.421875 37.3125 -1.421875 
Q 31.296875 -1.421875 27.21875 0.890625 
Q 23.140625 3.21875 20.515625 8.109375 
L 20.515625 -15.578125 
L 29 -15.578125 
L 29 -20.796875 
L 2.875 -20.796875 
L 2.875 -15.578125 
L 11.53125 -15.578125 
z
" id="DejaVuSerif-112"/>
      <path d="M 51.421875 15.578125 
Q 49.515625 7.28125 44.09375 2.921875 
Q 38.671875 -1.421875 30.078125 -1.421875 
Q 18.75 -1.421875 11.859375 6.078125 
Q 4.984375 13.578125 4.984375 25.984375 
Q 4.984375 38.421875 11.859375 45.875 
Q 18.75 53.328125 30.078125 53.328125 
Q 35.015625 53.328125 39.890625 52.171875 
Q 44.78125 51.03125 49.703125 48.6875 
L 49.703125 35.40625 
L 44.484375 35.40625 
Q 43.453125 42.234375 40.015625 45.359375 
Q 36.578125 48.484375 30.171875 48.484375 
Q 22.90625 48.484375 19.1875 42.84375 
Q 15.484375 37.203125 15.484375 25.984375 
Q 15.484375 14.75 19.171875 9.078125 
Q 22.859375 3.421875 30.171875 3.421875 
Q 35.984375 3.421875 39.453125 6.4375 
Q 42.921875 9.46875 44.1875 15.578125 
z
" id="DejaVuSerif-99"/>
      <path d="M 10.796875 46.6875 
L 2.875 46.6875 
L 2.875 51.90625 
L 10.796875 51.90625 
L 10.796875 68.015625 
L 19.828125 68.015625 
L 19.828125 51.90625 
L 36.71875 51.90625 
L 36.71875 46.6875 
L 19.828125 46.6875 
L 19.828125 13.71875 
Q 19.828125 7.125 21.09375 5.265625 
Q 22.359375 3.421875 25.78125 3.421875 
Q 29.296875 3.421875 30.90625 5.484375 
Q 32.515625 7.5625 32.625 12.203125 
L 39.40625 12.203125 
Q 39.015625 5.125 35.546875 1.84375 
Q 32.078125 -1.421875 25 -1.421875 
Q 17.234375 -1.421875 14.015625 2.015625 
Q 10.796875 5.46875 10.796875 13.71875 
z
" id="DejaVuSerif-116"/>
      <path d="M 7.078125 -15.578125 
L 7.078125 -10.796875 
Q 14.59375 -5.609375 17.890625 3.78125 
Q 21.1875 13.1875 21.1875 30.171875 
Q 21.1875 47.21875 17.890625 56.609375 
Q 14.59375 66.015625 7.078125 71.1875 
L 7.078125 75.984375 
Q 19 70.65625 25.046875 59.109375 
Q 31.109375 47.5625 31.109375 30.171875 
Q 31.109375 12.84375 25.046875 1.296875 
Q 19 -10.25 7.078125 -15.578125 
z
" id="DejaVuSerif-41"/>
     </defs>
     <g transform="translate(350.406875 665.62125)scale(0.08 -0.08)">
      <use xlink:href="#DejaVuSerif-108"/>
      <use x="31.982422" xlink:href="#DejaVuSerif-111"/>
      <use x="92.1875" xlink:href="#DejaVuSerif-115"/>
      <use x="143.505859" xlink:href="#DejaVuSerif-115"/>
      <use x="194.824219" xlink:href="#DejaVuSerif-32"/>
      <use x="226.611328" xlink:href="#DejaVuSerif-40"/>
      <use x="265.625" xlink:href="#DejaVuSerif-112"/>
      <use x="329.638672" xlink:href="#DejaVuSerif-99"/>
      <use x="385.644531" xlink:href="#DejaVuSerif-116"/>
      <use x="425.830078" xlink:href="#DejaVuSerif-41"/>
     </g>
    </g>
   </g>
   <g id="matplotlib.axis_2">
    <g id="ytick_1">
     <g id="line2d_13">
      <path clip-path="url(#p0213988531)" d="M 90 543.6 
L 648 543.6 
" style="fill:none;stroke:#b0b0b0;stroke-linecap:square;stroke-width:0.8;"/>
     </g>
     <g id="line2d_14">
      <defs>
       <path d="M 0 0 
L -3.5 0 
" id="m5b8a317050" style="stroke:#000000;stroke-width:0.8;"/>
      </defs>
      <g>
       <use style="stroke:#000000;stroke-width:0.8;" x="90" xlink:href="#m5b8a317050" y="543.6"/>
      </g>
     </g>
     <g id="text_8">
      <!-- 0 -->
      <g transform="translate(77.91 546.639375)scale(0.08 -0.08)">
       <use xlink:href="#DejaVuSerif-48"/>
      </g>
     </g>
    </g>
    <g id="ytick_2">
     <g id="line2d_15">
      <path clip-path="url(#p0213988531)" d="M 90 425.489764 
L 648 425.489764 
" style="fill:none;stroke:#b0b0b0;stroke-linecap:square;stroke-width:0.8;"/>
     </g>
     <g id="line2d_16">
      <g>
       <use style="stroke:#000000;stroke-width:0.8;" x="90" xlink:href="#m5b8a317050" y="425.489764"/>
      </g>
     </g>
     <g id="text_9">
      <!-- 2 -->
      <g transform="translate(77.91 428.529139)scale(0.08 -0.08)">
       <use xlink:href="#DejaVuSerif-50"/>
      </g>
     </g>
    </g>
    <g id="ytick_3">
     <g id="line2d_17">
      <path clip-path="url(#p0213988531)" d="M 90 307.379528 
L 648 307.379528 
" style="fill:none;stroke:#b0b0b0;stroke-linecap:square;stroke-width:0.8;"/>
     </g>
     <g id="line2d_18">
      <g>
       <use style="stroke:#000000;stroke-width:0.8;" x="90" xlink:href="#m5b8a317050" y="307.379528"/>
      </g>
     </g>
     <g id="text_10">
      <!-- 4 -->
      <g transform="translate(77.91 310.418903)scale(0.08 -0.08)">
       <use xlink:href="#DejaVuSerif-52"/>
      </g>
     </g>
    </g>
    <g id="ytick_4">
     <g id="line2d_19">
      <path clip-path="url(#p0213988531)" d="M 90 189.269291 
L 648 189.269291 
" style="fill:none;stroke:#b0b0b0;stroke-linecap:square;stroke-width:0.8;"/>
     </g>
     <g id="line2d_20">
      <g>
       <use style="stroke:#000000;stroke-width:0.8;" x="90" xlink:href="#m5b8a317050" y="189.269291"/>
      </g>
     </g>
     <g id="text_11">
      <!-- 6 -->
      <g transform="translate(77.91 192.308666)scale(0.08 -0.08)">
       <use xlink:href="#DejaVuSerif-54"/>
      </g>
     </g>
    </g>
    <g id="text_12">
     <!-- flood depth above floor (meters) -->
     <defs>
      <path d="M 43.015625 63.71875 
L 38.28125 63.71875 
Q 38.234375 67.390625 36.203125 69.28125 
Q 34.1875 71.1875 30.328125 71.1875 
Q 25.296875 71.1875 23.234375 68.421875 
Q 21.1875 65.671875 21.1875 58.59375 
L 21.1875 51.90625 
L 35.6875 51.90625 
L 35.6875 46.6875 
L 21.1875 46.6875 
L 21.1875 5.171875 
L 32.71875 5.171875 
L 32.71875 0 
L 3.609375 0 
L 3.609375 5.171875 
L 12.203125 5.171875 
L 12.203125 46.6875 
L 3.609375 46.6875 
L 3.609375 51.90625 
L 12.203125 51.90625 
L 12.203125 58.40625 
Q 12.203125 67.09375 16.71875 71.53125 
Q 21.234375 75.984375 29.984375 75.984375 
Q 33.25 75.984375 36.515625 75.390625 
Q 39.796875 74.8125 43.015625 73.578125 
z
" id="DejaVuSerif-102"/>
      <path d="M 52.484375 5.171875 
L 61.078125 5.171875 
L 61.078125 0 
L 43.5 0 
L 43.5 8.109375 
Q 40.875 3.21875 36.796875 0.890625 
Q 32.71875 -1.421875 26.703125 -1.421875 
Q 17.140625 -1.421875 11.0625 6.171875 
Q 4.984375 13.765625 4.984375 25.984375 
Q 4.984375 38.1875 11.03125 45.75 
Q 17.09375 53.328125 26.703125 53.328125 
Q 32.71875 53.328125 36.796875 51 
Q 40.875 48.6875 43.5 43.796875 
L 43.5 70.796875 
L 35.015625 70.796875 
L 35.015625 75.984375 
L 52.484375 75.984375 
z
M 43.5 23.390625 
L 43.5 28.515625 
Q 43.5 37.84375 39.90625 42.765625 
Q 36.328125 47.703125 29.5 47.703125 
Q 22.5625 47.703125 19.015625 42.234375 
Q 15.484375 36.765625 15.484375 25.984375 
Q 15.484375 15.234375 19.015625 9.71875 
Q 22.5625 4.203125 29.5 4.203125 
Q 36.328125 4.203125 39.90625 9.109375 
Q 43.5 14.015625 43.5 23.390625 
z
" id="DejaVuSerif-100"/>
      <path d="M 54.203125 25 
L 15.484375 25 
L 15.484375 24.609375 
Q 15.484375 14.109375 19.4375 8.765625 
Q 23.390625 3.421875 31.109375 3.421875 
Q 37.015625 3.421875 40.796875 6.515625 
Q 44.578125 9.625 46.09375 15.71875 
L 53.328125 15.71875 
Q 51.171875 7.171875 45.375 2.875 
Q 39.59375 -1.421875 30.171875 -1.421875 
Q 18.796875 -1.421875 11.890625 6.078125 
Q 4.984375 13.578125 4.984375 25.984375 
Q 4.984375 38.28125 11.765625 45.796875 
Q 18.5625 53.328125 29.59375 53.328125 
Q 41.359375 53.328125 47.65625 46.0625 
Q 53.953125 38.8125 54.203125 25 
z
M 43.609375 30.171875 
Q 43.3125 39.265625 39.765625 43.875 
Q 36.234375 48.484375 29.59375 48.484375 
Q 23.390625 48.484375 19.828125 43.84375 
Q 16.265625 39.203125 15.484375 30.171875 
z
" id="DejaVuSerif-101"/>
      <path d="M 4.109375 0 
L 4.109375 5.171875 
L 12.203125 5.171875 
L 12.203125 70.796875 
L 3.609375 70.796875 
L 3.609375 75.984375 
L 21.1875 75.984375 
L 21.1875 42.671875 
Q 23.6875 47.953125 27.65625 50.640625 
Q 31.640625 53.328125 36.921875 53.328125 
Q 45.515625 53.328125 49.5625 48.390625 
Q 53.609375 43.453125 53.609375 33.015625 
L 53.609375 5.171875 
L 61.625 5.171875 
L 61.625 0 
L 36.8125 0 
L 36.8125 5.171875 
L 44.578125 5.171875 
L 44.578125 30.171875 
Q 44.578125 39.703125 42.25 43.1875 
Q 39.9375 46.6875 33.984375 46.6875 
Q 27.734375 46.6875 24.453125 42.140625 
Q 21.1875 37.59375 21.1875 28.90625 
L 21.1875 5.171875 
L 29 5.171875 
L 29 0 
z
" id="DejaVuSerif-104"/>
      <path d="M 39.796875 16.3125 
L 39.796875 27.296875 
L 28.21875 27.296875 
Q 21.53125 27.296875 18.25 24.40625 
Q 14.984375 21.53125 14.984375 15.578125 
Q 14.984375 10.15625 18.296875 6.984375 
Q 21.625 3.8125 27.296875 3.8125 
Q 32.90625 3.8125 36.34375 7.28125 
Q 39.796875 10.75 39.796875 16.3125 
z
M 48.78125 32.421875 
L 48.78125 5.171875 
L 56.78125 5.171875 
L 56.78125 0 
L 39.796875 0 
L 39.796875 5.609375 
Q 36.8125 2 32.90625 0.28125 
Q 29 -1.421875 23.78125 -1.421875 
Q 15.140625 -1.421875 10.0625 3.171875 
Q 4.984375 7.765625 4.984375 15.578125 
Q 4.984375 23.640625 10.796875 28.078125 
Q 16.609375 32.515625 27.203125 32.515625 
L 39.796875 32.515625 
L 39.796875 36.078125 
Q 39.796875 42 36.203125 45.234375 
Q 32.625 48.484375 26.125 48.484375 
Q 20.75 48.484375 17.578125 46.046875 
Q 14.40625 43.609375 13.625 38.8125 
L 8.984375 38.8125 
L 8.984375 49.3125 
Q 13.671875 51.3125 18.09375 52.3125 
Q 22.515625 53.328125 26.703125 53.328125 
Q 37.5 53.328125 43.140625 47.96875 
Q 48.78125 42.625 48.78125 32.421875 
z
" id="DejaVuSerif-97"/>
      <path d="M 11.53125 5.171875 
L 11.53125 70.796875 
L 2.875 70.796875 
L 2.875 75.984375 
L 20.515625 75.984375 
L 20.515625 43.796875 
Q 23.140625 48.6875 27.21875 51 
Q 31.296875 53.328125 37.3125 53.328125 
Q 46.875 53.328125 52.921875 45.75 
Q 58.984375 38.1875 58.984375 25.984375 
Q 58.984375 13.765625 52.921875 6.171875 
Q 46.875 -1.421875 37.3125 -1.421875 
Q 31.296875 -1.421875 27.21875 0.890625 
Q 23.140625 3.21875 20.515625 8.109375 
L 20.515625 0 
L 2.875 0 
L 2.875 5.171875 
z
M 20.515625 23.390625 
Q 20.515625 14.015625 24.09375 9.109375 
Q 27.6875 4.203125 34.515625 4.203125 
Q 41.40625 4.203125 44.9375 9.71875 
Q 48.484375 15.234375 48.484375 25.984375 
Q 48.484375 36.765625 44.9375 42.234375 
Q 41.40625 47.703125 34.515625 47.703125 
Q 27.6875 47.703125 24.09375 42.765625 
Q 20.515625 37.84375 20.515625 28.515625 
z
" id="DejaVuSerif-98"/>
      <path d="M 24.703125 0 
L 5.609375 46.6875 
L -0.296875 46.6875 
L -0.296875 51.90625 
L 23.578125 51.90625 
L 23.578125 46.6875 
L 15.28125 46.6875 
L 29.890625 10.984375 
L 44.484375 46.6875 
L 36.71875 46.6875 
L 36.71875 51.90625 
L 56.203125 51.90625 
L 56.203125 46.6875 
L 50.390625 46.6875 
L 31.296875 0 
z
" id="DejaVuSerif-118"/>
      <path d="M 47.796875 52 
L 47.796875 39.015625 
L 42.625 39.015625 
Q 42.390625 42.875 40.484375 44.78125 
Q 38.578125 46.6875 34.90625 46.6875 
Q 28.265625 46.6875 24.71875 42.09375 
Q 21.1875 37.5 21.1875 28.90625 
L 21.1875 5.171875 
L 31.59375 5.171875 
L 31.59375 0 
L 4.109375 0 
L 4.109375 5.171875 
L 12.203125 5.171875 
L 12.203125 46.78125 
L 3.609375 46.78125 
L 3.609375 51.90625 
L 21.1875 51.90625 
L 21.1875 42.671875 
Q 23.828125 48.09375 27.96875 50.703125 
Q 32.125 53.328125 38.09375 53.328125 
Q 40.28125 53.328125 42.703125 52.984375 
Q 45.125 52.640625 47.796875 52 
z
" id="DejaVuSerif-114"/>
      <path d="M 51.8125 41.796875 
Q 54.390625 47.515625 58.421875 50.421875 
Q 62.453125 53.328125 67.828125 53.328125 
Q 75.984375 53.328125 79.984375 48.265625 
Q 83.984375 43.21875 83.984375 33.015625 
L 83.984375 5.171875 
L 92.09375 5.171875 
L 92.09375 0 
L 67.1875 0 
L 67.1875 5.171875 
L 75 5.171875 
L 75 31.984375 
Q 75 39.9375 72.65625 43.3125 
Q 70.3125 46.6875 64.890625 46.6875 
Q 58.890625 46.6875 55.734375 42.140625 
Q 52.59375 37.59375 52.59375 28.90625 
L 52.59375 5.171875 
L 60.40625 5.171875 
L 60.40625 0 
L 35.796875 0 
L 35.796875 5.171875 
L 43.609375 5.171875 
L 43.609375 32.328125 
Q 43.609375 40.09375 41.265625 43.390625 
Q 38.921875 46.6875 33.5 46.6875 
Q 27.484375 46.6875 24.328125 42.140625 
Q 21.1875 37.59375 21.1875 28.90625 
L 21.1875 5.171875 
L 29 5.171875 
L 29 0 
L 4.109375 0 
L 4.109375 5.171875 
L 12.203125 5.171875 
L 12.203125 46.78125 
L 3.609375 46.78125 
L 3.609375 51.90625 
L 21.1875 51.90625 
L 21.1875 42.671875 
Q 23.6875 47.859375 27.53125 50.59375 
Q 31.390625 53.328125 36.28125 53.328125 
Q 42.328125 53.328125 46.375 50.3125 
Q 50.4375 47.3125 51.8125 41.796875 
z
" id="DejaVuSerif-109"/>
     </defs>
     <g transform="translate(72.24625 429.185)rotate(-90)scale(0.08 -0.08)">
      <use xlink:href="#DejaVuSerif-102"/>
      <use x="37.011719" xlink:href="#DejaVuSerif-108"/>
      <use x="68.994141" xlink:href="#DejaVuSerif-111"/>
      <use x="129.199219" xlink:href="#DejaVuSerif-111"/>
      <use x="189.404297" xlink:href="#DejaVuSerif-100"/>
      <use x="253.417969" xlink:href="#DejaVuSerif-32"/>
      <use x="285.205078" xlink:href="#DejaVuSerif-100"/>
      <use x="349.21875" xlink:href="#DejaVuSerif-101"/>
      <use x="408.398438" xlink:href="#DejaVuSerif-112"/>
      <use x="472.412109" xlink:href="#DejaVuSerif-116"/>
      <use x="512.597656" xlink:href="#DejaVuSerif-104"/>
      <use x="577.001953" xlink:href="#DejaVuSerif-32"/>
      <use x="608.789062" xlink:href="#DejaVuSerif-97"/>
      <use x="668.408203" xlink:href="#DejaVuSerif-98"/>
      <use x="732.421875" xlink:href="#DejaVuSerif-111"/>
      <use x="792.626953" xlink:href="#DejaVuSerif-118"/>
      <use x="849.121094" xlink:href="#DejaVuSerif-101"/>
      <use x="908.300781" xlink:href="#DejaVuSerif-32"/>
      <use x="940.087891" xlink:href="#DejaVuSerif-102"/>
      <use x="977.099609" xlink:href="#DejaVuSerif-108"/>
      <use x="1009.082031" xlink:href="#DejaVuSerif-111"/>
      <use x="1069.287109" xlink:href="#DejaVuSerif-111"/>
      <use x="1129.492188" xlink:href="#DejaVuSerif-114"/>
      <use x="1177.294922" xlink:href="#DejaVuSerif-32"/>
      <use x="1209.082031" xlink:href="#DejaVuSerif-40"/>
      <use x="1248.095703" xlink:href="#DejaVuSerif-109"/>
      <use x="1342.919922" xlink:href="#DejaVuSerif-101"/>
      <use x="1402.099609" xlink:href="#DejaVuSerif-116"/>
      <use x="1442.285156" xlink:href="#DejaVuSerif-101"/>
      <use x="1501.464844" xlink:href="#DejaVuSerif-114"/>
      <use x="1549.267578" xlink:href="#DejaVuSerif-115"/>
      <use x="1600.585938" xlink:href="#DejaVuSerif-41"/>
     </g>
    </g>
   </g>
   <g id="line2d_21">
    <path clip-path="url(#p0213988531)" d="M 90 615.6 
L 90 597.6 
L 90 579.6 
L 90 561.6 
L 151.38 543.6 
L 268.56 525.6 
L 307.62 507.6 
L 318.78 489.6 
L 346.68 471.6 
L 374.58 453.6 
L 391.32 435.6 
L 391.32 417.6 
L 419.22 399.6 
L 419.22 381.6 
L 419.22 363.6 
L 419.22 345.6 
L 419.22 327.6 
L 419.22 309.6 
L 419.22 291.6 
L 419.22 273.6 
L 419.22 255.6 
L 419.22 237.6 
L 419.22 219.6 
L 419.22 201.6 
L 419.22 183.6 
L 419.22 165.6 
L 419.22 147.6 
L 419.22 129.6 
L 419.22 111.6 
" style="fill:none;stroke:#1f77b4;stroke-linecap:square;stroke-width:1.5;"/>
    <defs>
     <path d="M -3 0 
L 3 0 
M 0 3 
L 0 -3 
" id="m2fe77c5672" style="stroke:#1f77b4;"/>
    </defs>
    <g clip-path="url(#p0213988531)">
     <use style="fill:#1f77b4;stroke:#1f77b4;" x="90" xlink:href="#m2fe77c5672" y="615.6"/>
     <use style="fill:#1f77b4;stroke:#1f77b4;" x="90" xlink:href="#m2fe77c5672" y="597.6"/>
     <use style="fill:#1f77b4;stroke:#1f77b4;" x="90" xlink:href="#m2fe77c5672" y="579.6"/>
     <use style="fill:#1f77b4;stroke:#1f77b4;" x="90" xlink:href="#m2fe77c5672" y="561.6"/>
     <use style="fill:#1f77b4;stroke:#1f77b4;" x="151.38" xlink:href="#m2fe77c5672" y="543.6"/>
     <use style="fill:#1f77b4;stroke:#1f77b4;" x="268.56" xlink:href="#m2fe77c5672" y="525.6"/>
     <use style="fill:#1f77b4;stroke:#1f77b4;" x="307.62" xlink:href="#m2fe77c5672" y="507.6"/>
     <use style="fill:#1f77b4;stroke:#1f77b4;" x="318.78" xlink:href="#m2fe77c5672" y="489.6"/>
     <use style="fill:#1f77b4;stroke:#1f77b4;" x="346.68" xlink:href="#m2fe77c5672" y="471.6"/>
     <use style="fill:#1f77b4;stroke:#1f77b4;" x="374.58" xlink:href="#m2fe77c5672" y="453.6"/>
     <use style="fill:#1f77b4;stroke:#1f77b4;" x="391.32" xlink:href="#m2fe77c5672" y="435.6"/>
     <use style="fill:#1f77b4;stroke:#1f77b4;" x="391.32" xlink:href="#m2fe77c5672" y="417.6"/>
     <use style="fill:#1f77b4;stroke:#1f77b4;" x="419.22" xlink:href="#m2fe77c5672" y="399.6"/>
     <use style="fill:#1f77b4;stroke:#1f77b4;" x="419.22" xlink:href="#m2fe77c5672" y="381.6"/>
     <use style="fill:#1f77b4;stroke:#1f77b4;" x="419.22" xlink:href="#m2fe77c5672" y="363.6"/>
     <use style="fill:#1f77b4;stroke:#1f77b4;" x="419.22" xlink:href="#m2fe77c5672" y="345.6"/>
     <use style="fill:#1f77b4;stroke:#1f77b4;" x="419.22" xlink:href="#m2fe77c5672" y="327.6"/>
     <use style="fill:#1f77b4;stroke:#1f77b4;" x="419.22" xlink:href="#m2fe77c5672" y="309.6"/>
     <use style="fill:#1f77b4;stroke:#1f77b4;" x="419.22" xlink:href="#m2fe77c5672" y="291.6"/>
     <use style="fill:#1f77b4;stroke:#1f77b4;" x="419.22" xlink:href="#m2fe77c5672" y="273.6"/>
     <use style="fill:#1f77b4;stroke:#1f77b4;" x="419.22" xlink:href="#m2fe77c5672" y="255.6"/>
     <use style="fill:#1f77b4;stroke:#1f77b4;" x="419.22" xlink:href="#m2fe77c5672" y="237.6"/>
     <use style="fill:#1f77b4;stroke:#1f77b4;" x="419.22" xlink:href="#m2fe77c5672" y="219.6"/>
     <use style="fill:#1f77b4;stroke:#1f77b4;" x="419.22" xlink:href="#m2fe77c5672" y="201.6"/>
     <use style="fill:#1f77b4;stroke:#1f77b4;" x="419.22" xlink:href="#m2fe77c5672" y="183.6"/>
     <use style="fill:#1f77b4;stroke:#1f77b4;" x="419.22" xlink:href="#m2fe77c5672" y="165.6"/>
     <use style="fill:#1f77b4;stroke:#1f77b4;" x="419.22" xlink:href="#m2fe77c5672" y="147.6"/>
     <use style="fill:#1f77b4;stroke:#1f77b4;" x="419.22" xlink:href="#m2fe77c5672" y="129.6"/>
     <use style="fill:#1f77b4;stroke:#1f77b4;" x="419.22" xlink:href="#m2fe77c5672" y="111.6"/>
    </g>
   </g>
   <g id="line2d_22">
    <path clip-path="url(#p0213988531)" d="M 90 615.6 
L 90 597.6 
L 90 579.6 
L 90 561.6 
L 123.48 543.6 
L 190.44 525.6 
L 201.6 507.6 
L 212.76 489.6 
L 229.5 471.6 
L 240.66 453.6 
L 251.82 435.6 
L 251.82 417.6 
L 268.56 399.6 
L 290.88 381.6 
L 341.1 363.6 
L 341.1 345.6 
L 341.1 327.6 
L 352.26 309.6 
L 363.42 291.6 
L 363.42 273.6 
L 363.42 255.6 
L 363.42 237.6 
L 363.42 219.6 
L 363.42 201.6 
L 363.42 183.6 
L 363.42 165.6 
L 363.42 147.6 
L 363.42 129.6 
L 363.42 111.6 
" style="fill:none;stroke:#ff7f0e;stroke-linecap:square;stroke-width:1.5;"/>
    <defs>
     <path d="M 0 0 
L 0 3 
M 0 0 
L 2.4 -1.5 
M 0 0 
L -2.4 -1.5 
" id="mcae946e8c9" style="stroke:#ff7f0e;"/>
    </defs>
    <g clip-path="url(#p0213988531)">
     <use style="fill:#ff7f0e;stroke:#ff7f0e;" x="90" xlink:href="#mcae946e8c9" y="615.6"/>
     <use style="fill:#ff7f0e;stroke:#ff7f0e;" x="90" xlink:href="#mcae946e8c9" y="597.6"/>
     <use style="fill:#ff7f0e;stroke:#ff7f0e;" x="90" xlink:href="#mcae946e8c9" y="579.6"/>
     <use style="fill:#ff7f0e;stroke:#ff7f0e;" x="90" xlink:href="#mcae946e8c9" y="561.6"/>
     <use style="fill:#ff7f0e;stroke:#ff7f0e;" x="123.48" xlink:href="#mcae946e8c9" y="543.6"/>
     <use style="fill:#ff7f0e;stroke:#ff7f0e;" x="190.44" xlink:href="#mcae946e8c9" y="525.6"/>
     <use style="fill:#ff7f0e;stroke:#ff7f0e;" x="201.6" xlink:href="#mcae946e8c9" y="507.6"/>
     <use style="fill:#ff7f0e;stroke:#ff7f0e;" x="212.76" xlink:href="#mcae946e8c9" y="489.6"/>
     <use style="fill:#ff7f0e;stroke:#ff7f0e;" x="229.5" xlink:href="#mcae946e8c9" y="471.6"/>
     <use style="fill:#ff7f0e;stroke:#ff7f0e;" x="240.66" xlink:href="#mcae946e8c9" y="453.6"/>
     <use style="fill:#ff7f0e;stroke:#ff7f0e;" x="251.82" xlink:href="#mcae946e8c9" y="435.6"/>
     <use style="fill:#ff7f0e;stroke:#ff7f0e;" x="251.82" xlink:href="#mcae946e8c9" y="417.6"/>
     <use style="fill:#ff7f0e;stroke:#ff7f0e;" x="268.56" xlink:href="#mcae946e8c9" y="399.6"/>
     <use style="fill:#ff7f0e;stroke:#ff7f0e;" x="290.88" xlink:href="#mcae946e8c9" y="381.6"/>
     <use style="fill:#ff7f0e;stroke:#ff7f0e;" x="341.1" xlink:href="#mcae946e8c9" y="363.6"/>
     <use style="fill:#ff7f0e;stroke:#ff7f0e;" x="341.1" xlink:href="#mcae946e8c9" y="345.6"/>
     <use style="fill:#ff7f0e;stroke:#ff7f0e;" x="341.1" xlink:href="#mcae946e8c9" y="327.6"/>
     <use style="fill:#ff7f0e;stroke:#ff7f0e;" x="352.26" xlink:href="#mcae946e8c9" y="309.6"/>
     <use style="fill:#ff7f0e;stroke:#ff7f0e;" x="363.42" xlink:href="#mcae946e8c9" y="291.6"/>
     <use style="fill:#ff7f0e;stroke:#ff7f0e;" x="363.42" xlink:href="#mcae946e8c9" y="273.6"/>
     <use style="fill:#ff7f0e;stroke:#ff7f0e;" x="363.42" xlink:href="#mcae946e8c9" y="255.6"/>
     <use style="fill:#ff7f0e;stroke:#ff7f0e;" x="363.42" xlink:href="#mcae946e8c9" y="237.6"/>
     <use style="fill:#ff7f0e;stroke:#ff7f0e;" x="363.42" xlink:href="#mcae946e8c9" y="219.6"/>
     <use style="fill:#ff7f0e;stroke:#ff7f0e;" x="363.42" xlink:href="#mcae946e8c9" y="201.6"/>
     <use style="fill:#ff7f0e;stroke:#ff7f0e;" x="363.42" xlink:href="#mcae946e8c9" y="183.6"/>
     <use style="fill:#ff7f0e;stroke:#ff7f0e;" x="363.42" xlink:href="#mcae946e8c9" y="165.6"/>
     <use style="fill:#ff7f0e;stroke:#ff7f0e;" x="363.42" xlink:href="#mcae946e8c9" y="147.6"/>
     <use style="fill:#ff7f0e;stroke:#ff7f0e;" x="363.42" xlink:href="#mcae946e8c9" y="129.6"/>
     <use style="fill:#ff7f0e;stroke:#ff7f0e;" x="363.42" xlink:href="#mcae946e8c9" y="111.6"/>
    </g>
   </g>
   <g id="line2d_23">
    <path clip-path="url(#p0213988531)" d="M 90 615.6 
L 90 597.6 
L 90 579.6 
L 90 561.6 
L 117.9 543.6 
L 156.96 525.6 
L 184.86 507.6 
L 201.6 489.6 
L 207.18 471.6 
L 212.76 453.6 
L 212.76 435.6 
L 218.34 417.6 
L 229.5 399.6 
L 240.66 381.6 
L 262.98 363.6 
L 285.3 345.6 
L 307.62 327.6 
L 324.36 309.6 
L 324.36 291.6 
L 324.36 273.6 
L 324.36 255.6 
L 324.36 237.6 
L 324.36 219.6 
L 324.36 201.6 
L 324.36 183.6 
L 324.36 165.6 
L 324.36 147.6 
L 324.36 129.6 
L 324.36 111.6 
" style="fill:none;stroke:#2ca02c;stroke-linecap:square;stroke-width:1.5;"/>
    <defs>
     <path d="M 0 3 
C 0.795609 3 1.55874 2.683901 2.12132 2.12132 
C 2.683901 1.55874 3 0.795609 3 0 
C 3 -0.795609 2.683901 -1.55874 2.12132 -2.12132 
C 1.55874 -2.683901 0.795609 -3 0 -3 
C -0.795609 -3 -1.55874 -2.683901 -2.12132 -2.12132 
C -2.683901 -1.55874 -3 -0.795609 -3 0 
C -3 0.795609 -2.683901 1.55874 -2.12132 2.12132 
C -1.55874 2.683901 -0.795609 3 0 3 
z
" id="mdac2d101b8" style="stroke:#2ca02c;"/>
    </defs>
    <g clip-path="url(#p0213988531)">
     <use style="fill:#2ca02c;stroke:#2ca02c;" x="90" xlink:href="#mdac2d101b8" y="615.6"/>
     <use style="fill:#2ca02c;stroke:#2ca02c;" x="90" xlink:href="#mdac2d101b8" y="597.6"/>
     <use style="fill:#2ca02c;stroke:#2ca02c;" x="90" xlink:href="#mdac2d101b8" y="579.6"/>
     <use style="fill:#2ca02c;stroke:#2ca02c;" x="90" xlink:href="#mdac2d101b8" y="561.6"/>
     <use style="fill:#2ca02c;stroke:#2ca02c;" x="117.9" xlink:href="#mdac2d101b8" y="543.6"/>
     <use style="fill:#2ca02c;stroke:#2ca02c;" x="156.96" xlink:href="#mdac2d101b8" y="525.6"/>
     <use style="fill:#2ca02c;stroke:#2ca02c;" x="184.86" xlink:href="#mdac2d101b8" y="507.6"/>
     <use style="fill:#2ca02c;stroke:#2ca02c;" x="201.6" xlink:href="#mdac2d101b8" y="489.6"/>
     <use style="fill:#2ca02c;stroke:#2ca02c;" x="207.18" xlink:href="#mdac2d101b8" y="471.6"/>
     <use style="fill:#2ca02c;stroke:#2ca02c;" x="212.76" xlink:href="#mdac2d101b8" y="453.6"/>
     <use style="fill:#2ca02c;stroke:#2ca02c;" x="212.76" xlink:href="#mdac2d101b8" y="435.6"/>
     <use style="fill:#2ca02c;stroke:#2ca02c;" x="218.34" xlink:href="#mdac2d101b8" y="417.6"/>
     <use style="fill:#2ca02c;stroke:#2ca02c;" x="229.5" xlink:href="#mdac2d101b8" y="399.6"/>
     <use style="fill:#2ca02c;stroke:#2ca02c;" x="240.66" xlink:href="#mdac2d101b8" y="381.6"/>
     <use style="fill:#2ca02c;stroke:#2ca02c;" x="262.98" xlink:href="#mdac2d101b8" y="363.6"/>
     <use style="fill:#2ca02c;stroke:#2ca02c;" x="285.3" xlink:href="#mdac2d101b8" y="345.6"/>
     <use style="fill:#2ca02c;stroke:#2ca02c;" x="307.62" xlink:href="#mdac2d101b8" y="327.6"/>
     <use style="fill:#2ca02c;stroke:#2ca02c;" x="324.36" xlink:href="#mdac2d101b8" y="309.6"/>
     <use style="fill:#2ca02c;stroke:#2ca02c;" x="324.36" xlink:href="#mdac2d101b8" y="291.6"/>
     <use style="fill:#2ca02c;stroke:#2ca02c;" x="324.36" xlink:href="#mdac2d101b8" y="273.6"/>
     <use style="fill:#2ca02c;stroke:#2ca02c;" x="324.36" xlink:href="#mdac2d101b8" y="255.6"/>
     <use style="fill:#2ca02c;stroke:#2ca02c;" x="324.36" xlink:href="#mdac2d101b8" y="237.6"/>
     <use style="fill:#2ca02c;stroke:#2ca02c;" x="324.36" xlink:href="#mdac2d101b8" y="219.6"/>
     <use style="fill:#2ca02c;stroke:#2ca02c;" x="324.36" xlink:href="#mdac2d101b8" y="201.6"/>
     <use style="fill:#2ca02c;stroke:#2ca02c;" x="324.36" xlink:href="#mdac2d101b8" y="183.6"/>
     <use style="fill:#2ca02c;stroke:#2ca02c;" x="324.36" xlink:href="#mdac2d101b8" y="165.6"/>
     <use style="fill:#2ca02c;stroke:#2ca02c;" x="324.36" xlink:href="#mdac2d101b8" y="147.6"/>
     <use style="fill:#2ca02c;stroke:#2ca02c;" x="324.36" xlink:href="#mdac2d101b8" y="129.6"/>
     <use style="fill:#2ca02c;stroke:#2ca02c;" x="324.36" xlink:href="#mdac2d101b8" y="111.6"/>
    </g>
   </g>
   <g id="line2d_24">
    <path clip-path="url(#p0213988531)" d="M 90 615.6 
L 90 597.6 
L 90 579.6 
L 90 561.6 
L 117.9 543.6 
L 156.96 525.6 
L 184.86 507.6 
L 201.6 489.6 
L 207.18 471.6 
L 212.76 453.6 
L 212.76 435.6 
L 218.34 417.6 
L 229.5 399.6 
L 240.66 381.6 
L 262.98 363.6 
L 285.3 345.6 
L 307.62 327.6 
L 324.36 309.6 
L 324.36 291.6 
L 324.36 273.6 
L 324.36 255.6 
L 324.36 237.6 
L 324.36 219.6 
L 324.36 201.6 
L 324.36 183.6 
L 324.36 165.6 
L 324.36 147.6 
L 324.36 129.6 
L 324.36 111.6 
" style="fill:none;stroke:#d62728;stroke-linecap:square;stroke-width:1.5;"/>
    <defs>
     <path d="M 0 0 
L 0 -3 
M 0 0 
L -2.4 1.5 
M 0 0 
L 2.4 1.5 
" id="m5ebfa3694a" style="stroke:#d62728;"/>
    </defs>
    <g clip-path="url(#p0213988531)">
     <use style="fill:#d62728;stroke:#d62728;" x="90" xlink:href="#m5ebfa3694a" y="615.6"/>
     <use style="fill:#d62728;stroke:#d62728;" x="90" xlink:href="#m5ebfa3694a" y="597.6"/>
     <use style="fill:#d62728;stroke:#d62728;" x="90" xlink:href="#m5ebfa3694a" y="579.6"/>
     <use style="fill:#d62728;stroke:#d62728;" x="90" xlink:href="#m5ebfa3694a" y="561.6"/>
     <use style="fill:#d62728;stroke:#d62728;" x="117.9" xlink:href="#m5ebfa3694a" y="543.6"/>
     <use style="fill:#d62728;stroke:#d62728;" x="156.96" xlink:href="#m5ebfa3694a" y="525.6"/>
     <use style="fill:#d62728;stroke:#d62728;" x="184.86" xlink:href="#m5ebfa3694a" y="507.6"/>
     <use style="fill:#d62728;stroke:#d62728;" x="201.6" xlink:href="#m5ebfa3694a" y="489.6"/>
     <use style="fill:#d62728;stroke:#d62728;" x="207.18" xlink:href="#m5ebfa3694a" y="471.6"/>
     <use style="fill:#d62728;stroke:#d62728;" x="212.76" xlink:href="#m5ebfa3694a" y="453.6"/>
     <use style="fill:#d62728;stroke:#d62728;" x="212.76" xlink:href="#m5ebfa3694a" y="435.6"/>
     <use style="fill:#d62728;stroke:#d62728;" x="218.34" xlink:href="#m5ebfa3694a" y="417.6"/>
     <use style="fill:#d62728;stroke:#d62728;" x="229.5" xlink:href="#m5ebfa3694a" y="399.6"/>
     <use style="fill:#d62728;stroke:#d62728;" x="240.66" xlink:href="#m5ebfa3694a" y="381.6"/>
     <use style="fill:#d62728;stroke:#d62728;" x="262.98" xlink:href="#m5ebfa3694a" y="363.6"/>
     <use style="fill:#d62728;stroke:#d62728;" x="285.3" xlink:href="#m5ebfa3694a" y="345.6"/>
     <use style="fill:#d62728;stroke:#d62728;" x="307.62" xlink:href="#m5ebfa3694a" y="327.6"/>
     <use style="fill:#d62728;stroke:#d62728;" x="324.36" xlink:href="#m5ebfa3694a" y="309.6"/>
     <use style="fill:#d62728;stroke:#d62728;" x="324.36" xlink:href="#m5ebfa3694a" y="291.6"/>
     <use style="fill:#d62728;stroke:#d62728;" x="324.36" xlink:href="#m5ebfa3694a" y="273.6"/>
     <use style="fill:#d62728;stroke:#d62728;" x="324.36" xlink:href="#m5ebfa3694a" y="255.6"/>
     <use style="fill:#d62728;stroke:#d62728;" x="324.36" xlink:href="#m5ebfa3694a" y="237.6"/>
     <use style="fill:#d62728;stroke:#d62728;" x="324.36" xlink:href="#m5ebfa3694a" y="219.6"/>
     <use style="fill:#d62728;stroke:#d62728;" x="324.36" xlink:href="#m5ebfa3694a" y="201.6"/>
     <use style="fill:#d62728;stroke:#d62728;" x="324.36" xlink:href="#m5ebfa3694a" y="183.6"/>
     <use style="fill:#d62728;stroke:#d62728;" x="324.36" xlink:href="#m5ebfa3694a" y="165.6"/>
     <use style="fill:#d62728;stroke:#d62728;" x="324.36" xlink:href="#m5ebfa3694a" y="147.6"/>
     <use style="fill:#d62728;stroke:#d62728;" x="324.36" xlink:href="#m5ebfa3694a" y="129.6"/>
     <use style="fill:#d62728;stroke:#d62728;" x="324.36" xlink:href="#m5ebfa3694a" y="111.6"/>
    </g>
   </g>
   <g id="line2d_25">
    <path clip-path="url(#p0213988531)" d="M 90 615.6 
L 90 597.6 
L 90 579.6 
L 90 561.6 
L 117.9 543.6 
L 156.96 525.6 
L 184.86 507.6 
L 201.6 489.6 
L 207.18 471.6 
L 212.76 453.6 
L 212.76 435.6 
L 218.34 417.6 
L 229.5 399.6 
L 240.66 381.6 
L 262.98 363.6 
L 285.3 345.6 
L 307.62 327.6 
L 324.36 309.6 
L 324.36 291.6 
L 324.36 273.6 
L 324.36 255.6 
L 324.36 237.6 
L 324.36 219.6 
L 324.36 201.6 
L 324.36 183.6 
L 324.36 165.6 
L 324.36 147.6 
L 324.36 129.6 
L 324.36 111.6 
" style="fill:none;stroke:#9467bd;stroke-linecap:square;stroke-width:1.5;"/>
    <defs>
     <path d="M -3 3 
L 3 -3 
M -3 -3 
L 3 3 
" id="mced4318c7a" style="stroke:#9467bd;"/>
    </defs>
    <g clip-path="url(#p0213988531)">
     <use style="fill:#9467bd;stroke:#9467bd;" x="90" xlink:href="#mced4318c7a" y="615.6"/>
     <use style="fill:#9467bd;stroke:#9467bd;" x="90" xlink:href="#mced4318c7a" y="597.6"/>
     <use style="fill:#9467bd;stroke:#9467bd;" x="90" xlink:href="#mced4318c7a" y="579.6"/>
     <use style="fill:#9467bd;stroke:#9467bd;" x="90" xlink:href="#mced4318c7a" y="561.6"/>
     <use style="fill:#9467bd;stroke:#9467bd;" x="117.9" xlink:href="#mced4318c7a" y="543.6"/>
     <use style="fill:#9467bd;stroke:#9467bd;" x="156.96" xlink:href="#mced4318c7a" y="525.6"/>
     <use style="fill:#9467bd;stroke:#9467bd;" x="184.86" xlink:href="#mced4318c7a" y="507.6"/>
     <use style="fill:#9467bd;stroke:#9467bd;" x="201.6" xlink:href="#mced4318c7a" y="489.6"/>
     <use style="fill:#9467bd;stroke:#9467bd;" x="207.18" xlink:href="#mced4318c7a" y="471.6"/>
     <use style="fill:#9467bd;stroke:#9467bd;" x="212.76" xlink:href="#mced4318c7a" y="453.6"/>
     <use style="fill:#9467bd;stroke:#9467bd;" x="212.76" xlink:href="#mced4318c7a" y="435.6"/>
     <use style="fill:#9467bd;stroke:#9467bd;" x="218.34" xlink:href="#mced4318c7a" y="417.6"/>
     <use style="fill:#9467bd;stroke:#9467bd;" x="229.5" xlink:href="#mced4318c7a" y="399.6"/>
     <use style="fill:#9467bd;stroke:#9467bd;" x="240.66" xlink:href="#mced4318c7a" y="381.6"/>
     <use style="fill:#9467bd;stroke:#9467bd;" x="262.98" xlink:href="#mced4318c7a" y="363.6"/>
     <use style="fill:#9467bd;stroke:#9467bd;" x="285.3" xlink:href="#mced4318c7a" y="345.6"/>
     <use style="fill:#9467bd;stroke:#9467bd;" x="307.62" xlink:href="#mced4318c7a" y="327.6"/>
     <use style="fill:#9467bd;stroke:#9467bd;" x="324.36" xlink:href="#mced4318c7a" y="309.6"/>
     <use style="fill:#9467bd;stroke:#9467bd;" x="324.36" xlink:href="#mced4318c7a" y="291.6"/>
     <use style="fill:#9467bd;stroke:#9467bd;" x="324.36" xlink:href="#mced4318c7a" y="273.6"/>
     <use style="fill:#9467bd;stroke:#9467bd;" x="324.36" xlink:href="#mced4318c7a" y="255.6"/>
     <use style="fill:#9467bd;stroke:#9467bd;" x="324.36" xlink:href="#mced4318c7a" y="237.6"/>
     <use style="fill:#9467bd;stroke:#9467bd;" x="324.36" xlink:href="#mced4318c7a" y="219.6"/>
     <use style="fill:#9467bd;stroke:#9467bd;" x="324.36" xlink:href="#mced4318c7a" y="201.6"/>
     <use style="fill:#9467bd;stroke:#9467bd;" x="324.36" xlink:href="#mced4318c7a" y="183.6"/>
     <use style="fill:#9467bd;stroke:#9467bd;" x="324.36" xlink:href="#mced4318c7a" y="165.6"/>
     <use style="fill:#9467bd;stroke:#9467bd;" x="324.36" xlink:href="#mced4318c7a" y="147.6"/>
     <use style="fill:#9467bd;stroke:#9467bd;" x="324.36" xlink:href="#mced4318c7a" y="129.6"/>
     <use style="fill:#9467bd;stroke:#9467bd;" x="324.36" xlink:href="#mced4318c7a" y="111.6"/>
    </g>
   </g>
   <g id="patch_3">
    <path d="M 90 640.8 
L 90 86.4 
" style="fill:none;stroke:#000000;stroke-linecap:square;stroke-linejoin:miter;stroke-width:0.8;"/>
   </g>
   <g id="patch_4">
    <path d="M 648 640.8 
L 648 86.4 
" style="fill:none;stroke:#000000;stroke-linecap:square;stroke-linejoin:miter;stroke-width:0.8;"/>
   </g>
   <g id="patch_5">
    <path d="M 90 640.8 
L 648 640.8 
" style="fill:none;stroke:#000000;stroke-linecap:square;stroke-linejoin:miter;stroke-width:0.8;"/>
   </g>
   <g id="patch_6">
    <path d="M 90 86.4 
L 648 86.4 
" style="fill:none;stroke:#000000;stroke-linecap:square;stroke-linejoin:miter;stroke-width:0.8;"/>
   </g>
   <g id="legend_1">
    <g id="patch_7">
     <path d="M 523.5225 152.625 
L 642.4 152.625 
Q 644 152.625 644 151.025 
L 644 92 
Q 644 90.4 642.4 90.4 
L 523.5225 90.4 
Q 521.9225 90.4 521.9225 92 
L 521.9225 151.025 
Q 521.9225 152.625 523.5225 152.625 
z
" style="fill:#ffffff;opacity:0.8;stroke:#cccccc;stroke-linejoin:miter;"/>
    </g>
    <g id="line2d_26">
     <path d="M 525.1225 96.87875 
L 541.1225 96.87875 
" style="fill:none;stroke:#1f77b4;stroke-linecap:square;stroke-width:1.5;"/>
    </g>
    <g id="line2d_27">
     <g>
      <use style="fill:#1f77b4;stroke:#1f77b4;" x="533.1225" xlink:href="#m2fe77c5672" y="96.87875"/>
     </g>
    </g>
    <g id="text_13">
     <!-- BldgStruct_RES1_173 -->
     <defs>
      <path d="M 24.703125 5.171875 
L 39.3125 5.171875 
Q 48.09375 5.171875 52.140625 8.984375 
Q 56.203125 12.796875 56.203125 21.09375 
Q 56.203125 29.34375 52.171875 33.125 
Q 48.140625 36.921875 39.3125 36.921875 
L 24.703125 36.921875 
z
M 24.703125 42.09375 
L 37.109375 42.09375 
Q 45.125 42.09375 48.796875 45.171875 
Q 52.484375 48.25 52.484375 54.890625 
Q 52.484375 61.578125 48.796875 64.625 
Q 45.125 67.671875 37.109375 67.671875 
L 24.703125 67.671875 
z
M 5.515625 0 
L 5.515625 5.171875 
L 14.796875 5.171875 
L 14.796875 67.671875 
L 5.515625 67.671875 
L 5.515625 72.90625 
L 41.5 72.90625 
Q 52.546875 72.90625 58.125 68.390625 
Q 63.71875 63.875 63.71875 54.890625 
Q 63.71875 48.390625 59.828125 44.53125 
Q 55.953125 40.671875 48.484375 39.796875 
Q 57.765625 38.625 62.578125 33.859375 
Q 67.390625 29.109375 67.390625 21.09375 
Q 67.390625 10.25 60.546875 5.125 
Q 53.71875 0 39.203125 0 
z
" id="DejaVuSerif-66"/>
      <path d="M 52.484375 46.6875 
L 52.484375 1.125 
Q 52.484375 -10.0625 46.328125 -16.140625 
Q 40.1875 -22.21875 28.8125 -22.21875 
Q 23.6875 -22.21875 19 -21.28125 
Q 14.3125 -20.359375 10.015625 -18.5 
L 10.015625 -7.625 
L 14.703125 -7.625 
Q 15.578125 -12.703125 18.84375 -15.046875 
Q 22.125 -17.390625 28.21875 -17.390625 
Q 36.140625 -17.390625 39.8125 -12.921875 
Q 43.5 -8.453125 43.5 1.125 
L 43.5 8.109375 
Q 40.875 3.21875 36.796875 0.890625 
Q 32.71875 -1.421875 26.703125 -1.421875 
Q 17.140625 -1.421875 11.0625 6.171875 
Q 4.984375 13.765625 4.984375 25.984375 
Q 4.984375 38.1875 11.03125 45.75 
Q 17.09375 53.328125 26.703125 53.328125 
Q 32.71875 53.328125 36.796875 51 
Q 40.875 48.6875 43.5 43.796875 
L 43.5 51.90625 
L 61.078125 51.90625 
L 61.078125 46.6875 
z
M 43.5 28.515625 
Q 43.5 37.84375 39.90625 42.765625 
Q 36.328125 47.703125 29.5 47.703125 
Q 22.5625 47.703125 19.015625 42.234375 
Q 15.484375 36.765625 15.484375 25.984375 
Q 15.484375 15.234375 19.015625 9.71875 
Q 22.5625 4.203125 29.5 4.203125 
Q 36.328125 4.203125 39.90625 9.109375 
Q 43.5 14.015625 43.5 23.390625 
z
" id="DejaVuSerif-103"/>
      <path d="M 9.28125 3.515625 
L 9.28125 20.125 
L 14.890625 20.0625 
Q 15.140625 11.765625 19.703125 7.78125 
Q 24.265625 3.8125 33.59375 3.8125 
Q 42.28125 3.8125 46.84375 7.25 
Q 51.421875 10.6875 51.421875 17.28125 
Q 51.421875 22.5625 48.65625 25.390625 
Q 45.90625 28.21875 37.015625 30.90625 
L 27.390625 33.796875 
Q 16.9375 36.96875 12.671875 41.703125 
Q 8.40625 46.4375 8.40625 54.6875 
Q 8.40625 63.96875 14.984375 69.09375 
Q 21.578125 74.21875 33.5 74.21875 
Q 38.578125 74.21875 44.625 73.109375 
Q 50.6875 72.015625 57.515625 69.921875 
L 57.515625 54.390625 
L 52 54.390625 
Q 51.171875 62.109375 46.84375 65.546875 
Q 42.53125 69 33.6875 69 
Q 25.984375 69 21.953125 65.84375 
Q 17.921875 62.703125 17.921875 56.6875 
Q 17.921875 51.46875 20.9375 48.484375 
Q 23.96875 45.515625 33.796875 42.578125 
L 42.828125 39.890625 
Q 52.734375 36.921875 56.953125 32.296875 
Q 61.1875 27.6875 61.1875 19.921875 
Q 61.1875 9.328125 54.390625 3.953125 
Q 47.609375 -1.421875 34.1875 -1.421875 
Q 28.171875 -1.421875 21.9375 -0.1875 
Q 15.71875 1.03125 9.28125 3.515625 
z
" id="DejaVuSerif-83"/>
      <path d="M 35.40625 51.90625 
L 52.203125 51.90625 
L 52.203125 5.171875 
L 60.6875 5.171875 
L 60.6875 0 
L 43.21875 0 
L 43.21875 9.1875 
Q 40.71875 4 36.765625 1.28125 
Q 32.8125 -1.421875 27.59375 -1.421875 
Q 18.953125 -1.421875 14.875 3.484375 
Q 10.796875 8.40625 10.796875 18.890625 
L 10.796875 46.6875 
L 2.6875 46.6875 
L 2.6875 51.90625 
L 19.828125 51.90625 
L 19.828125 21.6875 
Q 19.828125 12.203125 22.140625 8.6875 
Q 24.46875 5.171875 30.421875 5.171875 
Q 36.671875 5.171875 39.9375 9.765625 
Q 43.21875 14.359375 43.21875 23.09375 
L 43.21875 46.6875 
L 35.40625 46.6875 
z
" id="DejaVuSerif-117"/>
      <path d="M 50 -19.671875 
L 50 -23.578125 
L 0 -23.578125 
L 0 -19.671875 
z
" id="DejaVuSerif-95"/>
      <path d="M 47.90625 36.1875 
Q 51.3125 35.25 53.78125 33.03125 
Q 56.25 30.8125 58.203125 26.8125 
L 68.796875 5.171875 
L 77.6875 5.171875 
L 77.6875 0 
L 60.5 0 
L 49.125 23.1875 
Q 45.84375 29.9375 43.109375 31.90625 
Q 40.375 33.890625 35.59375 33.890625 
L 24.703125 33.890625 
L 24.703125 5.171875 
L 35.015625 5.171875 
L 35.015625 0 
L 5.515625 0 
L 5.515625 5.171875 
L 14.796875 5.171875 
L 14.796875 67.671875 
L 5.515625 67.671875 
L 5.515625 72.90625 
L 42.484375 72.90625 
Q 53.125 72.90625 58.90625 67.828125 
Q 64.703125 62.75 64.703125 53.421875 
Q 64.703125 45.90625 60.46875 41.578125 
Q 56.25 37.25 47.90625 36.1875 
z
M 24.703125 39.109375 
L 39.109375 39.109375 
Q 46.484375 39.109375 50 42.59375 
Q 53.515625 46.09375 53.515625 53.421875 
Q 53.515625 60.75 50 64.203125 
Q 46.484375 67.671875 39.109375 67.671875 
L 24.703125 67.671875 
z
" id="DejaVuSerif-82"/>
      <path d="M 5.515625 0 
L 5.515625 5.171875 
L 14.796875 5.171875 
L 14.796875 67.671875 
L 5.515625 67.671875 
L 5.515625 72.90625 
L 64.203125 72.90625 
L 64.203125 56.6875 
L 58.203125 56.6875 
L 58.203125 66.890625 
L 24.703125 66.890625 
L 24.703125 42.484375 
L 48.578125 42.484375 
L 48.578125 51.609375 
L 54.59375 51.609375 
L 54.59375 27.390625 
L 48.578125 27.390625 
L 48.578125 36.53125 
L 24.703125 36.53125 
L 24.703125 6 
L 58.984375 6 
L 58.984375 16.21875 
L 64.984375 16.21875 
L 64.984375 0 
z
" id="DejaVuSerif-69"/>
      <path d="M 56.390625 67.921875 
L 27.875 0 
L 20.609375 0 
L 47.796875 64.890625 
L 14.109375 64.890625 
L 14.109375 55.90625 
L 8.40625 55.90625 
L 8.40625 72.90625 
L 56.390625 72.90625 
z
" id="DejaVuSerif-55"/>
      <path d="M 9.71875 69.828125 
Q 15.4375 71.96875 20.671875 73.09375 
Q 25.921875 74.21875 30.515625 74.21875 
Q 41.21875 74.21875 47.21875 69.59375 
Q 53.21875 64.984375 53.21875 56.78125 
Q 53.21875 50.203125 49.0625 45.78125 
Q 44.921875 41.359375 37.3125 39.796875 
Q 46.296875 38.53125 51.25 33.28125 
Q 56.203125 28.03125 56.203125 19.671875 
Q 56.203125 9.46875 49.34375 4.015625 
Q 42.484375 -1.421875 29.59375 -1.421875 
Q 23.875 -1.421875 18.421875 -0.1875 
Q 12.984375 1.03125 7.625 3.515625 
L 7.625 17.671875 
L 13.09375 17.671875 
Q 13.578125 10.640625 17.828125 7.03125 
Q 22.078125 3.421875 29.78125 3.421875 
Q 37.25 3.421875 41.578125 7.734375 
Q 45.90625 12.0625 45.90625 19.578125 
Q 45.90625 28.171875 41.453125 32.59375 
Q 37.015625 37.015625 28.421875 37.015625 
L 23.78125 37.015625 
L 23.78125 42 
L 26.21875 42 
Q 34.765625 42 39.03125 45.53125 
Q 43.3125 49.078125 43.3125 56.203125 
Q 43.3125 62.59375 39.796875 65.984375 
Q 36.28125 69.390625 29.6875 69.390625 
Q 23.09375 69.390625 19.453125 66.265625 
Q 15.828125 63.140625 15.1875 56.984375 
L 9.71875 56.984375 
z
" id="DejaVuSerif-51"/>
     </defs>
     <g transform="translate(547.5225 99.67875)scale(0.08 -0.08)">
      <use xlink:href="#DejaVuSerif-66"/>
      <use x="73.486328" xlink:href="#DejaVuSerif-108"/>
      <use x="105.46875" xlink:href="#DejaVuSerif-100"/>
      <use x="169.482422" xlink:href="#DejaVuSerif-103"/>
      <use x="233.496094" xlink:href="#DejaVuSerif-83"/>
      <use x="302.001953" xlink:href="#DejaVuSerif-116"/>
      <use x="342.1875" xlink:href="#DejaVuSerif-114"/>
      <use x="389.990234" xlink:href="#DejaVuSerif-117"/>
      <use x="454.394531" xlink:href="#DejaVuSerif-99"/>
      <use x="510.400391" xlink:href="#DejaVuSerif-116"/>
      <use x="550.585938" xlink:href="#DejaVuSerif-95"/>
      <use x="600.585938" xlink:href="#DejaVuSerif-82"/>
      <use x="675.878906" xlink:href="#DejaVuSerif-69"/>
      <use x="748.876953" xlink:href="#DejaVuSerif-83"/>
      <use x="817.382812" xlink:href="#DejaVuSerif-49"/>
      <use x="881.005859" xlink:href="#DejaVuSerif-95"/>
      <use x="931.005859" xlink:href="#DejaVuSerif-49"/>
      <use x="994.628906" xlink:href="#DejaVuSerif-55"/>
      <use x="1058.251953" xlink:href="#DejaVuSerif-51"/>
     </g>
    </g>
    <g id="line2d_28">
     <path d="M 525.1225 108.84375 
L 541.1225 108.84375 
" style="fill:none;stroke:#ff7f0e;stroke-linecap:square;stroke-width:1.5;"/>
    </g>
    <g id="line2d_29">
     <g>
      <use style="fill:#ff7f0e;stroke:#ff7f0e;" x="533.1225" xlink:href="#mcae946e8c9" y="108.84375"/>
     </g>
    </g>
    <g id="text_14">
     <!-- BldgStruct_RES1_174 -->
     <g transform="translate(547.5225 111.64375)scale(0.08 -0.08)">
      <use xlink:href="#DejaVuSerif-66"/>
      <use x="73.486328" xlink:href="#DejaVuSerif-108"/>
      <use x="105.46875" xlink:href="#DejaVuSerif-100"/>
      <use x="169.482422" xlink:href="#DejaVuSerif-103"/>
      <use x="233.496094" xlink:href="#DejaVuSerif-83"/>
      <use x="302.001953" xlink:href="#DejaVuSerif-116"/>
      <use x="342.1875" xlink:href="#DejaVuSerif-114"/>
      <use x="389.990234" xlink:href="#DejaVuSerif-117"/>
      <use x="454.394531" xlink:href="#DejaVuSerif-99"/>
      <use x="510.400391" xlink:href="#DejaVuSerif-116"/>
      <use x="550.585938" xlink:href="#DejaVuSerif-95"/>
      <use x="600.585938" xlink:href="#DejaVuSerif-82"/>
      <use x="675.878906" xlink:href="#DejaVuSerif-69"/>
      <use x="748.876953" xlink:href="#DejaVuSerif-83"/>
      <use x="817.382812" xlink:href="#DejaVuSerif-49"/>
      <use x="881.005859" xlink:href="#DejaVuSerif-95"/>
      <use x="931.005859" xlink:href="#DejaVuSerif-49"/>
      <use x="994.628906" xlink:href="#DejaVuSerif-55"/>
      <use x="1058.251953" xlink:href="#DejaVuSerif-52"/>
     </g>
    </g>
    <g id="line2d_30">
     <path d="M 525.1225 120.80875 
L 541.1225 120.80875 
" style="fill:none;stroke:#2ca02c;stroke-linecap:square;stroke-width:1.5;"/>
    </g>
    <g id="line2d_31">
     <g>
      <use style="fill:#2ca02c;stroke:#2ca02c;" x="533.1225" xlink:href="#mdac2d101b8" y="120.80875"/>
     </g>
    </g>
    <g id="text_15">
     <!-- BldgStruct_COM2_369 -->
     <defs>
      <path d="M 70.515625 19.28125 
Q 67.28125 9.078125 59.6875 3.828125 
Q 52.09375 -1.421875 40.484375 -1.421875 
Q 33.34375 -1.421875 27.234375 1.015625 
Q 21.140625 3.46875 16.40625 8.203125 
Q 10.9375 13.671875 8.265625 20.625 
Q 5.609375 27.59375 5.609375 36.375 
Q 5.609375 53.375 15.421875 63.796875 
Q 25.25 74.21875 41.3125 74.21875 
Q 47.265625 74.21875 54 72.65625 
Q 60.75 71.09375 68.5 67.921875 
L 68.5 51.125 
L 62.984375 51.125 
Q 61.1875 60.296875 55.734375 64.640625 
Q 50.296875 69 40.484375 69 
Q 28.8125 69 22.796875 60.71875 
Q 16.796875 52.4375 16.796875 36.375 
Q 16.796875 20.359375 22.796875 12.078125 
Q 28.8125 3.8125 40.484375 3.8125 
Q 48.640625 3.8125 53.90625 7.6875 
Q 59.1875 11.578125 61.53125 19.28125 
z
" id="DejaVuSerif-67"/>
      <path d="M 41.015625 3.8125 
Q 52.984375 3.8125 59.078125 12.03125 
Q 65.1875 20.265625 65.1875 36.375 
Q 65.1875 52.546875 59.078125 60.765625 
Q 52.984375 69 41.015625 69 
Q 29 69 22.890625 60.765625 
Q 16.796875 52.546875 16.796875 36.375 
Q 16.796875 20.265625 22.890625 12.03125 
Q 29 3.8125 41.015625 3.8125 
z
M 41.015625 -1.421875 
Q 33.59375 -1.421875 27.359375 1.015625 
Q 21.140625 3.46875 16.40625 8.203125 
Q 10.9375 13.671875 8.265625 20.609375 
Q 5.609375 27.546875 5.609375 36.375 
Q 5.609375 45.21875 8.265625 52.171875 
Q 10.9375 59.125 16.40625 64.59375 
Q 21.1875 69.390625 27.34375 71.796875 
Q 33.5 74.21875 41.015625 74.21875 
Q 56.890625 74.21875 66.65625 63.8125 
Q 76.421875 53.421875 76.421875 36.375 
Q 76.421875 27.640625 73.734375 20.625 
Q 71.046875 13.625 65.578125 8.203125 
Q 60.796875 3.421875 54.640625 1 
Q 48.484375 -1.421875 41.015625 -1.421875 
z
" id="DejaVuSerif-79"/>
      <path d="M 5.515625 0 
L 5.515625 5.171875 
L 14.796875 5.171875 
L 14.796875 67.671875 
L 4.984375 67.671875 
L 4.984375 72.90625 
L 26.21875 72.90625 
L 51.8125 21 
L 77.390625 72.90625 
L 97.3125 72.90625 
L 97.3125 67.671875 
L 87.59375 67.671875 
L 87.59375 5.171875 
L 96.921875 5.171875 
L 96.921875 0 
L 68.40625 0 
L 68.40625 5.171875 
L 77.6875 5.171875 
L 77.6875 61.53125 
L 52.6875 10.6875 
L 45.796875 10.6875 
L 20.796875 61.53125 
L 20.796875 5.171875 
L 30.078125 5.171875 
L 30.078125 0 
z
" id="DejaVuSerif-77"/>
      <path d="M 46.78125 32.671875 
Q 43.5 29 39.25 27.1875 
Q 35.015625 25.390625 29.6875 25.390625 
Q 18.84375 25.390625 12.5625 31.9375 
Q 6.296875 38.484375 6.296875 49.8125 
Q 6.296875 60.890625 13.109375 67.546875 
Q 19.921875 74.21875 31.296875 74.21875 
Q 43.65625 74.21875 50.265625 65.015625 
Q 56.890625 55.8125 56.890625 38.71875 
Q 56.890625 19.578125 49.015625 9.078125 
Q 41.15625 -1.421875 26.90625 -1.421875 
Q 23.046875 -1.421875 18.796875 -0.6875 
Q 14.546875 0.046875 10.109375 1.515625 
L 10.109375 13.625 
L 15.578125 13.625 
Q 16.21875 8.6875 19.390625 6.046875 
Q 22.5625 3.421875 27.875 3.421875 
Q 37.359375 3.421875 41.984375 10.5625 
Q 46.625 17.71875 46.78125 32.671875 
z
M 30.90625 69.390625 
Q 23.96875 69.390625 20.28125 64.328125 
Q 16.609375 59.28125 16.609375 49.8125 
Q 16.609375 40.328125 20.28125 35.25 
Q 23.96875 30.171875 30.90625 30.171875 
Q 37.84375 30.171875 41.53125 35.078125 
Q 45.21875 39.984375 45.21875 49.21875 
Q 45.21875 58.9375 41.5 64.15625 
Q 37.796875 69.390625 30.90625 69.390625 
z
" id="DejaVuSerif-57"/>
     </defs>
     <g transform="translate(547.5225 123.60875)scale(0.08 -0.08)">
      <use xlink:href="#DejaVuSerif-66"/>
      <use x="73.486328" xlink:href="#DejaVuSerif-108"/>
      <use x="105.46875" xlink:href="#DejaVuSerif-100"/>
      <use x="169.482422" xlink:href="#DejaVuSerif-103"/>
      <use x="233.496094" xlink:href="#DejaVuSerif-83"/>
      <use x="302.001953" xlink:href="#DejaVuSerif-116"/>
      <use x="342.1875" xlink:href="#DejaVuSerif-114"/>
      <use x="389.990234" xlink:href="#DejaVuSerif-117"/>
      <use x="454.394531" xlink:href="#DejaVuSerif-99"/>
      <use x="510.400391" xlink:href="#DejaVuSerif-116"/>
      <use x="550.585938" xlink:href="#DejaVuSerif-95"/>
      <use x="600.585938" xlink:href="#DejaVuSerif-67"/>
      <use x="677.099609" xlink:href="#DejaVuSerif-79"/>
      <use x="759.082031" xlink:href="#DejaVuSerif-77"/>
      <use x="861.474609" xlink:href="#DejaVuSerif-50"/>
      <use x="925.097656" xlink:href="#DejaVuSerif-95"/>
      <use x="975.097656" xlink:href="#DejaVuSerif-51"/>
      <use x="1038.720703" xlink:href="#DejaVuSerif-54"/>
      <use x="1102.34375" xlink:href="#DejaVuSerif-57"/>
     </g>
    </g>
    <g id="line2d_32">
     <path d="M 525.1225 132.77375 
L 541.1225 132.77375 
" style="fill:none;stroke:#d62728;stroke-linecap:square;stroke-width:1.5;"/>
    </g>
    <g id="line2d_33">
     <g>
      <use style="fill:#d62728;stroke:#d62728;" x="533.1225" xlink:href="#m5ebfa3694a" y="132.77375"/>
     </g>
    </g>
    <g id="text_16">
     <!-- BldgStruct_COM4_463 -->
     <g transform="translate(547.5225 135.57375)scale(0.08 -0.08)">
      <use xlink:href="#DejaVuSerif-66"/>
      <use x="73.486328" xlink:href="#DejaVuSerif-108"/>
      <use x="105.46875" xlink:href="#DejaVuSerif-100"/>
      <use x="169.482422" xlink:href="#DejaVuSerif-103"/>
      <use x="233.496094" xlink:href="#DejaVuSerif-83"/>
      <use x="302.001953" xlink:href="#DejaVuSerif-116"/>
      <use x="342.1875" xlink:href="#DejaVuSerif-114"/>
      <use x="389.990234" xlink:href="#DejaVuSerif-117"/>
      <use x="454.394531" xlink:href="#DejaVuSerif-99"/>
      <use x="510.400391" xlink:href="#DejaVuSerif-116"/>
      <use x="550.585938" xlink:href="#DejaVuSerif-95"/>
      <use x="600.585938" xlink:href="#DejaVuSerif-67"/>
      <use x="677.099609" xlink:href="#DejaVuSerif-79"/>
      <use x="759.082031" xlink:href="#DejaVuSerif-77"/>
      <use x="861.474609" xlink:href="#DejaVuSerif-52"/>
      <use x="925.097656" xlink:href="#DejaVuSerif-95"/>
      <use x="975.097656" xlink:href="#DejaVuSerif-52"/>
      <use x="1038.720703" xlink:href="#DejaVuSerif-54"/>
      <use x="1102.34375" xlink:href="#DejaVuSerif-51"/>
     </g>
    </g>
    <g id="line2d_34">
     <path d="M 525.1225 144.73875 
L 541.1225 144.73875 
" style="fill:none;stroke:#9467bd;stroke-linecap:square;stroke-width:1.5;"/>
    </g>
    <g id="line2d_35">
     <g>
      <use style="fill:#9467bd;stroke:#9467bd;" x="533.1225" xlink:href="#mced4318c7a" y="144.73875"/>
     </g>
    </g>
    <g id="text_17">
     <!-- BldgStruct_COM8_526 -->
     <defs>
      <path d="M 50.296875 72.90625 
L 50.296875 64.890625 
L 16.890625 64.890625 
L 16.890625 44 
Q 19.4375 45.75 22.828125 46.625 
Q 26.21875 47.515625 30.421875 47.515625 
Q 42.234375 47.515625 49.0625 40.96875 
Q 55.90625 34.421875 55.90625 23.09375 
Q 55.90625 11.53125 49 5.046875 
Q 42.09375 -1.421875 29.59375 -1.421875 
Q 24.5625 -1.421875 19.28125 -0.1875 
Q 14.015625 1.03125 8.5 3.515625 
L 8.5 17.671875 
L 14.015625 17.671875 
Q 14.453125 10.75 18.421875 7.078125 
Q 22.40625 3.421875 29.59375 3.421875 
Q 37.3125 3.421875 41.453125 8.5 
Q 45.609375 13.578125 45.609375 23.09375 
Q 45.609375 32.5625 41.484375 37.609375 
Q 37.359375 42.671875 29.59375 42.671875 
Q 25.203125 42.671875 21.84375 41.109375 
Q 18.5 39.546875 15.921875 36.28125 
L 11.71875 36.28125 
L 11.71875 72.90625 
z
" id="DejaVuSerif-53"/>
     </defs>
     <g transform="translate(547.5225 147.53875)scale(0.08 -0.08)">
      <use xlink:href="#DejaVuSerif-66"/>
      <use x="73.486328" xlink:href="#DejaVuSerif-108"/>
      <use x="105.46875" xlink:href="#DejaVuSerif-100"/>
      <use x="169.482422" xlink:href="#DejaVuSerif-103"/>
      <use x="233.496094" xlink:href="#DejaVuSerif-83"/>
      <use x="302.001953" xlink:href="#DejaVuSerif-116"/>
      <use x="342.1875" xlink:href="#DejaVuSerif-114"/>
      <use x="389.990234" xlink:href="#DejaVuSerif-117"/>
      <use x="454.394531" xlink:href="#DejaVuSerif-99"/>
      <use x="510.400391" xlink:href="#DejaVuSerif-116"/>
      <use x="550.585938" xlink:href="#DejaVuSerif-95"/>
      <use x="600.585938" xlink:href="#DejaVuSerif-67"/>
      <use x="677.099609" xlink:href="#DejaVuSerif-79"/>
      <use x="759.082031" xlink:href="#DejaVuSerif-77"/>
      <use x="861.474609" xlink:href="#DejaVuSerif-56"/>
      <use x="925.097656" xlink:href="#DejaVuSerif-95"/>
      <use x="975.097656" xlink:href="#DejaVuSerif-53"/>
      <use x="1038.720703" xlink:href="#DejaVuSerif-50"/>
      <use x="1102.34375" xlink:href="#DejaVuSerif-54"/>
     </g>
    </g>
   </g>
  </g>
  <g id="text_18">
   <!-- HAZUS_USACE-StPaul_BldgStruct -->
   <defs>
    <path d="M 5.515625 0 
L 5.515625 5.171875 
L 14.796875 5.171875 
L 14.796875 67.671875 
L 5.515625 67.671875 
L 5.515625 72.90625 
L 33.984375 72.90625 
L 33.984375 67.671875 
L 24.703125 67.671875 
L 24.703125 42.484375 
L 62.5 42.484375 
L 62.5 67.671875 
L 53.21875 67.671875 
L 53.21875 72.90625 
L 81.6875 72.90625 
L 81.6875 67.671875 
L 72.40625 67.671875 
L 72.40625 5.171875 
L 81.6875 5.171875 
L 81.6875 0 
L 53.21875 0 
L 53.21875 5.171875 
L 62.5 5.171875 
L 62.5 36.53125 
L 24.703125 36.53125 
L 24.703125 5.171875 
L 33.984375 5.171875 
L 33.984375 0 
z
" id="DejaVuSerif-72"/>
    <path d="M 20.015625 26.421875 
L 46.78125 26.421875 
L 33.40625 61.078125 
z
M -0.59375 0 
L -0.59375 5.171875 
L 5.8125 5.171875 
L 31.78125 72.90625 
L 39.984375 72.90625 
L 66.015625 5.171875 
L 73.1875 5.171875 
L 73.1875 0 
L 46.6875 0 
L 46.6875 5.171875 
L 54.78125 5.171875 
L 48.6875 21.1875 
L 18.015625 21.1875 
L 11.921875 5.171875 
L 19.921875 5.171875 
L 19.921875 0 
z
" id="DejaVuSerif-65"/>
    <path d="M 4.5 0 
L 4.5 3.515625 
L 49.90625 66.890625 
L 12.203125 66.890625 
L 12.203125 56 
L 6.203125 56 
L 6.203125 72.90625 
L 63.8125 72.90625 
L 63.8125 69.390625 
L 18.40625 6 
L 59.625 6 
L 59.625 16.21875 
L 65.578125 16.21875 
L 65.578125 0 
z
" id="DejaVuSerif-90"/>
    <path d="M 14.015625 67.671875 
L 4.6875 67.671875 
L 4.6875 72.90625 
L 33.203125 72.90625 
L 33.203125 67.671875 
L 23.875 67.671875 
L 23.875 29.984375 
Q 23.875 16.015625 28.4375 10.5 
Q 33.015625 4.984375 44.1875 4.984375 
Q 55.375 4.984375 59.9375 10.5 
Q 64.5 16.015625 64.5 29.984375 
L 64.5 67.671875 
L 55.171875 67.671875 
L 55.171875 72.90625 
L 79.78125 72.90625 
L 79.78125 67.671875 
L 70.515625 67.671875 
L 70.515625 29 
Q 70.515625 12.359375 64.109375 5.46875 
Q 57.71875 -1.421875 42.390625 -1.421875 
Q 27.046875 -1.421875 20.53125 5.515625 
Q 14.015625 12.453125 14.015625 29 
z
" id="DejaVuSerif-85"/>
    <path d="M 4.390625 30.609375 
L 29.390625 30.609375 
L 29.390625 23 
L 4.390625 23 
z
" id="DejaVuSerif-45"/>
    <path d="M 24.703125 37.109375 
L 37.59375 37.109375 
Q 44.875 37.109375 48.671875 41.03125 
Q 52.484375 44.96875 52.484375 52.390625 
Q 52.484375 59.859375 48.671875 63.765625 
Q 44.875 67.671875 37.59375 67.671875 
L 24.703125 67.671875 
z
M 5.515625 0 
L 5.515625 5.171875 
L 14.796875 5.171875 
L 14.796875 67.671875 
L 5.515625 67.671875 
L 5.515625 72.90625 
L 39.984375 72.90625 
Q 50.921875 72.90625 57.3125 67.359375 
Q 63.71875 61.8125 63.71875 52.390625 
Q 63.71875 43.015625 57.3125 37.453125 
Q 50.921875 31.890625 39.984375 31.890625 
L 24.703125 31.890625 
L 24.703125 5.171875 
L 35.984375 5.171875 
L 35.984375 0 
z
" id="DejaVuSerif-80"/>
   </defs>
   <g transform="translate(274.91925 21.6945)scale(0.096 -0.096)">
    <use xlink:href="#DejaVuSerif-72"/>
    <use x="87.207031" xlink:href="#DejaVuSerif-65"/>
    <use x="159.423828" xlink:href="#DejaVuSerif-90"/>
    <use x="228.90625" xlink:href="#DejaVuSerif-85"/>
    <use x="313.183594" xlink:href="#DejaVuSerif-83"/>
    <use x="381.689453" xlink:href="#DejaVuSerif-95"/>
    <use x="431.689453" xlink:href="#DejaVuSerif-85"/>
    <use x="515.966797" xlink:href="#DejaVuSerif-83"/>
    <use x="584.472656" xlink:href="#DejaVuSerif-65"/>
    <use x="656.689453" xlink:href="#DejaVuSerif-67"/>
    <use x="733.203125" xlink:href="#DejaVuSerif-69"/>
    <use x="806.216797" xlink:href="#DejaVuSerif-45"/>
    <use x="840.005859" xlink:href="#DejaVuSerif-83"/>
    <use x="908.511719" xlink:href="#DejaVuSerif-116"/>
    <use x="948.697266" xlink:href="#DejaVuSerif-80"/>
    <use x="1015.919922" xlink:href="#DejaVuSerif-97"/>
    <use x="1075.539062" xlink:href="#DejaVuSerif-117"/>
    <use x="1139.943359" xlink:href="#DejaVuSerif-108"/>
    <use x="1171.925781" xlink:href="#DejaVuSerif-95"/>
    <use x="1221.925781" xlink:href="#DejaVuSerif-66"/>
    <use x="1295.412109" xlink:href="#DejaVuSerif-108"/>
    <use x="1327.394531" xlink:href="#DejaVuSerif-100"/>
    <use x="1391.408203" xlink:href="#DejaVuSerif-103"/>
    <use x="1455.421875" xlink:href="#DejaVuSerif-83"/>
    <use x="1523.927734" xlink:href="#DejaVuSerif-116"/>
    <use x="1564.113281" xlink:href="#DejaVuSerif-114"/>
    <use x="1611.916016" xlink:href="#DejaVuSerif-117"/>
    <use x="1676.320312" xlink:href="#DejaVuSerif-99"/>
    <use x="1732.326172" xlink:href="#DejaVuSerif-116"/>
   </g>
  </g>
 </g>
 <defs>
  <clipPath id="p0213988531">
   <rect height="554.4" width="558" x="90" y="86.4"/>
  </clipPath>
 </defs>
</svg>
