<?xml version="1.0" encoding="utf-8" standalone="no"?>
<!DOCTYPE svg PUBLIC "-//W3C//DTD SVG 1.1//EN"
  "http://www.w3.org/Graphics/SVG/1.1/DTD/svg11.dtd">
<!-- Created with matplotlib (https://matplotlib.org/) -->
<svg height="288pt" version="1.1" viewBox="0 0 468 288" width="468pt" xmlns="http://www.w3.org/2000/svg" xmlns:xlink="http://www.w3.org/1999/xlink">
 <defs>
  <style type="text/css">
*{stroke-linecap:butt;stroke-linejoin:round;}
  </style>
 </defs>
 <g id="figure_1">
  <g id="patch_1">
   <path d="M 0 288 
L 468 288 
L 468 0 
L 0 0 
z
" style="fill:#ffffff;"/>
  </g>
  <g id="axes_1">
   <g id="patch_2">
    <path d="M 62.45774 258.51476 
L 462.45476 258.51476 
L 462.45476 26.107985 
L 62.45774 26.107985 
z
" style="fill:#ffffff;"/>
   </g>
   <g id="matplotlib.axis_1">
    <g id="xtick_1">
     <g id="line2d_1">
      <path clip-path="url(#pfe0d05c56c)" d="M 462.45476 258.51476 
L 462.45476 26.107985 
" style="fill:none;stroke:#b0b0b0;stroke-linecap:square;stroke-width:0.8;"/>
     </g>
     <g id="line2d_2">
      <defs>
       <path d="M 0 0 
L 0 3.5 
" id="mff4318ad02" style="stroke:#000000;stroke-width:0.8;"/>
      </defs>
      <g>
       <use style="stroke:#000000;stroke-width:0.8;" x="462.45476" xlink:href="#mff4318ad02" y="258.51476"/>
      </g>
     </g>
     <g id="text_1">
      <!-- 1 -->
      <defs>
       <path d="M 14.203125 0 
L 14.203125 5.171875 
L 26.90625 5.171875 
L 26.90625 65.828125 
L 12.203125 56.296875 
L 12.203125 62.703125 
L 29.984375 74.21875 
L 36.71875 74.21875 
L 36.71875 5.171875 
L 49.421875 5.171875 
L 49.421875 0 
z
" id="DejaVuSerif-49"/>
      </defs>
      <g transform="translate(459.90976 271.59351)scale(0.08 -0.08)">
       <use xlink:href="#DejaVuSerif-49"/>
      </g>
     </g>
    </g>
    <g id="xtick_2">
     <g id="line2d_3">
      <path clip-path="url(#pfe0d05c56c)" d="M 362.455505 258.51476 
L 362.455505 26.107985 
" style="fill:none;stroke:#b0b0b0;stroke-linecap:square;stroke-width:0.8;"/>
     </g>
     <g id="line2d_4">
      <g>
       <use style="stroke:#000000;stroke-width:0.8;" x="362.455505" xlink:href="#mff4318ad02" y="258.51476"/>
      </g>
     </g>
     <g id="text_2">
      <!-- 10 -->
      <defs>
       <path d="M 31.78125 3.421875 
Q 39.265625 3.421875 42.96875 11.625 
Q 46.6875 19.828125 46.6875 36.375 
Q 46.6875 52.984375 42.96875 61.1875 
Q 39.265625 69.390625 31.78125 69.390625 
Q 24.3125 69.390625 20.59375 61.1875 
Q 16.890625 52.984375 16.890625 36.375 
Q 16.890625 19.828125 20.59375 11.625 
Q 24.3125 3.421875 31.78125 3.421875 
z
M 31.78125 -1.421875 
Q 19.921875 -1.421875 13.25 8.53125 
Q 6.59375 18.5 6.59375 36.375 
Q 6.59375 54.296875 13.25 64.25 
Q 19.921875 74.21875 31.78125 74.21875 
Q 43.703125 74.21875 50.34375 64.25 
Q 56.984375 54.296875 56.984375 36.375 
Q 56.984375 18.5 50.34375 8.53125 
Q 43.703125 -1.421875 31.78125 -1.421875 
z
" id="DejaVuSerif-48"/>
      </defs>
      <g transform="translate(357.365505 271.59351)scale(0.08 -0.08)">
       <use xlink:href="#DejaVuSerif-49"/>
       <use x="63.623047" xlink:href="#DejaVuSerif-48"/>
      </g>
     </g>
    </g>
    <g id="xtick_3">
     <g id="line2d_5">
      <path clip-path="url(#pfe0d05c56c)" d="M 262.45625 258.51476 
L 262.45625 26.107985 
" style="fill:none;stroke:#b0b0b0;stroke-linecap:square;stroke-width:0.8;"/>
     </g>
     <g id="line2d_6">
      <g>
       <use style="stroke:#000000;stroke-width:0.8;" x="262.45625" xlink:href="#mff4318ad02" y="258.51476"/>
      </g>
     </g>
     <g id="text_3">
      <!-- 100 -->
      <g transform="translate(254.82125 271.59351)scale(0.08 -0.08)">
       <use xlink:href="#DejaVuSerif-49"/>
       <use x="63.623047" xlink:href="#DejaVuSerif-48"/>
       <use x="127.246094" xlink:href="#DejaVuSerif-48"/>
      </g>
     </g>
    </g>
    <g id="xtick_4">
     <g id="line2d_7">
      <path clip-path="url(#pfe0d05c56c)" d="M 162.456995 258.51476 
L 162.456995 26.107985 
" style="fill:none;stroke:#b0b0b0;stroke-linecap:square;stroke-width:0.8;"/>
     </g>
     <g id="line2d_8">
      <g>
       <use style="stroke:#000000;stroke-width:0.8;" x="162.456995" xlink:href="#mff4318ad02" y="258.51476"/>
      </g>
     </g>
     <g id="text_4">
      <!-- 1,000 -->
      <defs>
       <path d="M 3.609375 -9.71875 
Q 8.203125 -6.34375 10.34375 -1.78125 
Q 12.5 2.78125 12.5 9.28125 
L 12.5 11.078125 
L 22.125 11.078125 
Q 21.734375 2.734375 18.1875 -3.25 
Q 14.65625 -9.234375 7.515625 -13.625 
z
" id="DejaVuSerif-44"/>
      </defs>
      <g transform="translate(151.005745 271.59351)scale(0.08 -0.08)">
       <use xlink:href="#DejaVuSerif-49"/>
       <use x="63.623047" xlink:href="#DejaVuSerif-44"/>
       <use x="95.410156" xlink:href="#DejaVuSerif-48"/>
       <use x="159.033203" xlink:href="#DejaVuSerif-48"/>
       <use x="222.65625" xlink:href="#DejaVuSerif-48"/>
      </g>
     </g>
    </g>
    <g id="xtick_5">
     <g id="line2d_9">
      <path clip-path="url(#pfe0d05c56c)" d="M 62.45774 258.51476 
L 62.45774 26.107985 
" style="fill:none;stroke:#b0b0b0;stroke-linecap:square;stroke-width:0.8;"/>
     </g>
     <g id="line2d_10">
      <g>
       <use style="stroke:#000000;stroke-width:0.8;" x="62.45774" xlink:href="#mff4318ad02" y="258.51476"/>
      </g>
     </g>
     <g id="text_5">
      <!-- 10,000 -->
      <g transform="translate(48.46149 271.59351)scale(0.08 -0.08)">
       <use xlink:href="#DejaVuSerif-49"/>
       <use x="63.623047" xlink:href="#DejaVuSerif-48"/>
       <use x="127.246094" xlink:href="#DejaVuSerif-44"/>
       <use x="159.033203" xlink:href="#DejaVuSerif-48"/>
       <use x="222.65625" xlink:href="#DejaVuSerif-48"/>
       <use x="286.279297" xlink:href="#DejaVuSerif-48"/>
      </g>
     </g>
    </g>
    <g id="xtick_6">
     <g id="line2d_11">
      <defs>
       <path d="M 0 0 
L 0 2 
" id="m54e04f03a1" style="stroke:#000000;stroke-width:0.6;"/>
      </defs>
      <g>
       <use style="stroke:#000000;stroke-width:0.6;" x="432.351985" xlink:href="#m54e04f03a1" y="258.51476"/>
      </g>
     </g>
    </g>
    <g id="xtick_7">
     <g id="line2d_12">
      <g>
       <use style="stroke:#000000;stroke-width:0.6;" x="414.74299" xlink:href="#m54e04f03a1" y="258.51476"/>
      </g>
     </g>
    </g>
    <g id="xtick_8">
     <g id="line2d_13">
      <g>
       <use style="stroke:#000000;stroke-width:0.6;" x="402.249209" xlink:href="#m54e04f03a1" y="258.51476"/>
      </g>
     </g>
    </g>
    <g id="xtick_9">
     <g id="line2d_14">
      <g>
       <use style="stroke:#000000;stroke-width:0.6;" x="392.55828" xlink:href="#m54e04f03a1" y="258.51476"/>
      </g>
     </g>
    </g>
    <g id="xtick_10">
     <g id="line2d_15">
      <g>
       <use style="stroke:#000000;stroke-width:0.6;" x="384.640215" xlink:href="#m54e04f03a1" y="258.51476"/>
      </g>
     </g>
    </g>
    <g id="xtick_11">
     <g id="line2d_16">
      <g>
       <use style="stroke:#000000;stroke-width:0.6;" x="377.945586" xlink:href="#m54e04f03a1" y="258.51476"/>
      </g>
     </g>
    </g>
    <g id="xtick_12">
     <g id="line2d_17">
      <g>
       <use style="stroke:#000000;stroke-width:0.6;" x="372.146434" xlink:href="#m54e04f03a1" y="258.51476"/>
      </g>
     </g>
    </g>
    <g id="xtick_13">
     <g id="line2d_18">
      <g>
       <use style="stroke:#000000;stroke-width:0.6;" x="367.03122" xlink:href="#m54e04f03a1" y="258.51476"/>
      </g>
     </g>
    </g>
    <g id="xtick_14">
     <g id="line2d_19">
      <g>
       <use style="stroke:#000000;stroke-width:0.6;" x="332.35273" xlink:href="#m54e04f03a1" y="258.51476"/>
      </g>
     </g>
    </g>
    <g id="xtick_15">
     <g id="line2d_20">
      <g>
       <use style="stroke:#000000;stroke-width:0.6;" x="314.743735" xlink:href="#m54e04f03a1" y="258.51476"/>
      </g>
     </g>
    </g>
    <g id="xtick_16">
     <g id="line2d_21">
      <g>
       <use style="stroke:#000000;stroke-width:0.6;" x="302.249954" xlink:href="#m54e04f03a1" y="258.51476"/>
      </g>
     </g>
    </g>
    <g id="xtick_17">
     <g id="line2d_22">
      <g>
       <use style="stroke:#000000;stroke-width:0.6;" x="292.559025" xlink:href="#m54e04f03a1" y="258.51476"/>
      </g>
     </g>
    </g>
    <g id="xtick_18">
     <g id="line2d_23">
      <g>
       <use style="stroke:#000000;stroke-width:0.6;" x="284.64096" xlink:href="#m54e04f03a1" y="258.51476"/>
      </g>
     </g>
    </g>
    <g id="xtick_19">
     <g id="line2d_24">
      <g>
       <use style="stroke:#000000;stroke-width:0.6;" x="277.946331" xlink:href="#m54e04f03a1" y="258.51476"/>
      </g>
     </g>
    </g>
    <g id="xtick_20">
     <g id="line2d_25">
      <g>
       <use style="stroke:#000000;stroke-width:0.6;" x="272.147179" xlink:href="#m54e04f03a1" y="258.51476"/>
      </g>
     </g>
    </g>
    <g id="xtick_21">
     <g id="line2d_26">
      <g>
       <use style="stroke:#000000;stroke-width:0.6;" x="267.031965" xlink:href="#m54e04f03a1" y="258.51476"/>
      </g>
     </g>
    </g>
    <g id="xtick_22">
     <g id="line2d_27">
      <g>
       <use style="stroke:#000000;stroke-width:0.6;" x="232.353475" xlink:href="#m54e04f03a1" y="258.51476"/>
      </g>
     </g>
    </g>
    <g id="xtick_23">
     <g id="line2d_28">
      <g>
       <use style="stroke:#000000;stroke-width:0.6;" x="214.74448" xlink:href="#m54e04f03a1" y="258.51476"/>
      </g>
     </g>
    </g>
    <g id="xtick_24">
     <g id="line2d_29">
      <g>
       <use style="stroke:#000000;stroke-width:0.6;" x="202.250699" xlink:href="#m54e04f03a1" y="258.51476"/>
      </g>
     </g>
    </g>
    <g id="xtick_25">
     <g id="line2d_30">
      <g>
       <use style="stroke:#000000;stroke-width:0.6;" x="192.55977" xlink:href="#m54e04f03a1" y="258.51476"/>
      </g>
     </g>
    </g>
    <g id="xtick_26">
     <g id="line2d_31">
      <g>
       <use style="stroke:#000000;stroke-width:0.6;" x="184.641705" xlink:href="#m54e04f03a1" y="258.51476"/>
      </g>
     </g>
    </g>
    <g id="xtick_27">
     <g id="line2d_32">
      <g>
       <use style="stroke:#000000;stroke-width:0.6;" x="177.947076" xlink:href="#m54e04f03a1" y="258.51476"/>
      </g>
     </g>
    </g>
    <g id="xtick_28">
     <g id="line2d_33">
      <g>
       <use style="stroke:#000000;stroke-width:0.6;" x="172.147924" xlink:href="#m54e04f03a1" y="258.51476"/>
      </g>
     </g>
    </g>
    <g id="xtick_29">
     <g id="line2d_34">
      <g>
       <use style="stroke:#000000;stroke-width:0.6;" x="167.03271" xlink:href="#m54e04f03a1" y="258.51476"/>
      </g>
     </g>
    </g>
    <g id="xtick_30">
     <g id="line2d_35">
      <g>
       <use style="stroke:#000000;stroke-width:0.6;" x="132.35422" xlink:href="#m54e04f03a1" y="258.51476"/>
      </g>
     </g>
    </g>
    <g id="xtick_31">
     <g id="line2d_36">
      <g>
       <use style="stroke:#000000;stroke-width:0.6;" x="114.745225" xlink:href="#m54e04f03a1" y="258.51476"/>
      </g>
     </g>
    </g>
    <g id="xtick_32">
     <g id="line2d_37">
      <g>
       <use style="stroke:#000000;stroke-width:0.6;" x="102.251444" xlink:href="#m54e04f03a1" y="258.51476"/>
      </g>
     </g>
    </g>
    <g id="xtick_33">
     <g id="line2d_38">
      <g>
       <use style="stroke:#000000;stroke-width:0.6;" x="92.560515" xlink:href="#m54e04f03a1" y="258.51476"/>
      </g>
     </g>
    </g>
    <g id="xtick_34">
     <g id="line2d_39">
      <g>
       <use style="stroke:#000000;stroke-width:0.6;" x="84.64245" xlink:href="#m54e04f03a1" y="258.51476"/>
      </g>
     </g>
    </g>
    <g id="xtick_35">
     <g id="line2d_40">
      <g>
       <use style="stroke:#000000;stroke-width:0.6;" x="77.947821" xlink:href="#m54e04f03a1" y="258.51476"/>
      </g>
     </g>
    </g>
    <g id="xtick_36">
     <g id="line2d_41">
      <g>
       <use style="stroke:#000000;stroke-width:0.6;" x="72.148669" xlink:href="#m54e04f03a1" y="258.51476"/>
      </g>
     </g>
    </g>
    <g id="xtick_37">
     <g id="line2d_42">
      <g>
       <use style="stroke:#000000;stroke-width:0.6;" x="67.033455" xlink:href="#m54e04f03a1" y="258.51476"/>
      </g>
     </g>
    </g>
    <g id="text_6">
     <!-- ARI -->
     <defs>
      <path d="M 20.015625 26.421875 
L 46.78125 26.421875 
L 33.40625 61.078125 
z
M -0.59375 0 
L -0.59375 5.171875 
L 5.8125 5.171875 
L 31.78125 72.90625 
L 39.984375 72.90625 
L 66.015625 5.171875 
L 73.1875 5.171875 
L 73.1875 0 
L 46.6875 0 
L 46.6875 5.171875 
L 54.78125 5.171875 
L 48.6875 21.1875 
L 18.015625 21.1875 
L 11.921875 5.171875 
L 19.921875 5.171875 
L 19.921875 0 
z
" id="DejaVuSerif-65"/>
      <path d="M 47.90625 36.1875 
Q 51.3125 35.25 53.78125 33.03125 
Q 56.25 30.8125 58.203125 26.8125 
L 68.796875 5.171875 
L 77.6875 5.171875 
L 77.6875 0 
L 60.5 0 
L 49.125 23.1875 
Q 45.84375 29.9375 43.109375 31.90625 
Q 40.375 33.890625 35.59375 33.890625 
L 24.703125 33.890625 
L 24.703125 5.171875 
L 35.015625 5.171875 
L 35.015625 0 
L 5.515625 0 
L 5.515625 5.171875 
L 14.796875 5.171875 
L 14.796875 67.671875 
L 5.515625 67.671875 
L 5.515625 72.90625 
L 42.484375 72.90625 
Q 53.125 72.90625 58.90625 67.828125 
Q 64.703125 62.75 64.703125 53.421875 
Q 64.703125 45.90625 60.46875 41.578125 
Q 56.25 37.25 47.90625 36.1875 
z
M 24.703125 39.109375 
L 39.109375 39.109375 
Q 46.484375 39.109375 50 42.59375 
Q 53.515625 46.09375 53.515625 53.421875 
Q 53.515625 60.75 50 64.203125 
Q 46.484375 67.671875 39.109375 67.671875 
L 24.703125 67.671875 
z
" id="DejaVuSerif-82"/>
      <path d="M 24.703125 5.171875 
L 33.984375 5.171875 
L 33.984375 0 
L 5.515625 0 
L 5.515625 5.171875 
L 14.796875 5.171875 
L 14.796875 67.671875 
L 5.515625 67.671875 
L 5.515625 72.90625 
L 33.984375 72.90625 
L 33.984375 67.671875 
L 24.703125 67.671875 
z
" id="DejaVuSerif-73"/>
     </defs>
     <g transform="translate(254.975625 283.33601)scale(0.08 -0.08)">
      <use xlink:href="#DejaVuSerif-65"/>
      <use x="72.216797" xlink:href="#DejaVuSerif-82"/>
      <use x="147.509766" xlink:href="#DejaVuSerif-73"/>
     </g>
    </g>
   </g>
   <g id="matplotlib.axis_2">
    <g id="ytick_1">
     <g id="line2d_43">
      <path clip-path="url(#pfe0d05c56c)" d="M 62.45774 247.950816 
L 462.45476 247.950816 
" style="fill:none;stroke:#b0b0b0;stroke-linecap:square;stroke-width:0.8;"/>
     </g>
     <g id="line2d_44">
      <defs>
       <path d="M 0 0 
L -3.5 0 
" id="m19485bf0c3" style="stroke:#000000;stroke-width:0.8;"/>
      </defs>
      <g>
       <use style="stroke:#000000;stroke-width:0.8;" x="62.45774" xlink:href="#m19485bf0c3" y="247.950816"/>
      </g>
     </g>
     <g id="text_7">
      <!-- 0 -->
      <g transform="translate(50.36774 250.990191)scale(0.08 -0.08)">
       <use xlink:href="#DejaVuSerif-48"/>
      </g>
     </g>
    </g>
    <g id="ytick_2">
     <g id="line2d_45">
      <path clip-path="url(#pfe0d05c56c)" d="M 62.45774 220.373407 
L 462.45476 220.373407 
" style="fill:none;stroke:#b0b0b0;stroke-linecap:square;stroke-width:0.8;"/>
     </g>
     <g id="line2d_46">
      <g>
       <use style="stroke:#000000;stroke-width:0.8;" x="62.45774" xlink:href="#m19485bf0c3" y="220.373407"/>
      </g>
     </g>
     <g id="text_8">
      <!-- 500,000 -->
      <defs>
       <path d="M 50.296875 72.90625 
L 50.296875 64.890625 
L 16.890625 64.890625 
L 16.890625 44 
Q 19.4375 45.75 22.828125 46.625 
Q 26.21875 47.515625 30.421875 47.515625 
Q 42.234375 47.515625 49.0625 40.96875 
Q 55.90625 34.421875 55.90625 23.09375 
Q 55.90625 11.53125 49 5.046875 
Q 42.09375 -1.421875 29.59375 -1.421875 
Q 24.5625 -1.421875 19.28125 -0.1875 
Q 14.015625 1.03125 8.5 3.515625 
L 8.5 17.671875 
L 14.015625 17.671875 
Q 14.453125 10.75 18.421875 7.078125 
Q 22.40625 3.421875 29.59375 3.421875 
Q 37.3125 3.421875 41.453125 8.5 
Q 45.609375 13.578125 45.609375 23.09375 
Q 45.609375 32.5625 41.484375 37.609375 
Q 37.359375 42.671875 29.59375 42.671875 
Q 25.203125 42.671875 21.84375 41.109375 
Q 18.5 39.546875 15.921875 36.28125 
L 11.71875 36.28125 
L 11.71875 72.90625 
z
" id="DejaVuSerif-53"/>
      </defs>
      <g transform="translate(22.37524 223.412782)scale(0.08 -0.08)">
       <use xlink:href="#DejaVuSerif-53"/>
       <use x="63.623047" xlink:href="#DejaVuSerif-48"/>
       <use x="127.246094" xlink:href="#DejaVuSerif-48"/>
       <use x="190.869141" xlink:href="#DejaVuSerif-44"/>
       <use x="222.65625" xlink:href="#DejaVuSerif-48"/>
       <use x="286.279297" xlink:href="#DejaVuSerif-48"/>
       <use x="349.902344" xlink:href="#DejaVuSerif-48"/>
      </g>
     </g>
    </g>
    <g id="ytick_3">
     <g id="line2d_47">
      <path clip-path="url(#pfe0d05c56c)" d="M 62.45774 192.795997 
L 462.45476 192.795997 
" style="fill:none;stroke:#b0b0b0;stroke-linecap:square;stroke-width:0.8;"/>
     </g>
     <g id="line2d_48">
      <g>
       <use style="stroke:#000000;stroke-width:0.8;" x="62.45774" xlink:href="#m19485bf0c3" y="192.795997"/>
      </g>
     </g>
     <g id="text_9">
      <!-- 1,000,000 -->
      <g transform="translate(14.74274 195.835372)scale(0.08 -0.08)">
       <use xlink:href="#DejaVuSerif-49"/>
       <use x="63.623047" xlink:href="#DejaVuSerif-44"/>
       <use x="95.410156" xlink:href="#DejaVuSerif-48"/>
       <use x="159.033203" xlink:href="#DejaVuSerif-48"/>
       <use x="222.65625" xlink:href="#DejaVuSerif-48"/>
       <use x="286.279297" xlink:href="#DejaVuSerif-44"/>
       <use x="318.066406" xlink:href="#DejaVuSerif-48"/>
       <use x="381.689453" xlink:href="#DejaVuSerif-48"/>
       <use x="445.3125" xlink:href="#DejaVuSerif-48"/>
      </g>
     </g>
    </g>
    <g id="ytick_4">
     <g id="line2d_49">
      <path clip-path="url(#pfe0d05c56c)" d="M 62.45774 165.218588 
L 462.45476 165.218588 
" style="fill:none;stroke:#b0b0b0;stroke-linecap:square;stroke-width:0.8;"/>
     </g>
     <g id="line2d_50">
      <g>
       <use style="stroke:#000000;stroke-width:0.8;" x="62.45774" xlink:href="#m19485bf0c3" y="165.218588"/>
      </g>
     </g>
     <g id="text_10">
      <!-- 1,500,000 -->
      <g transform="translate(14.74274 168.257963)scale(0.08 -0.08)">
       <use xlink:href="#DejaVuSerif-49"/>
       <use x="63.623047" xlink:href="#DejaVuSerif-44"/>
       <use x="95.410156" xlink:href="#DejaVuSerif-53"/>
       <use x="159.033203" xlink:href="#DejaVuSerif-48"/>
       <use x="222.65625" xlink:href="#DejaVuSerif-48"/>
       <use x="286.279297" xlink:href="#DejaVuSerif-44"/>
       <use x="318.066406" xlink:href="#DejaVuSerif-48"/>
       <use x="381.689453" xlink:href="#DejaVuSerif-48"/>
       <use x="445.3125" xlink:href="#DejaVuSerif-48"/>
      </g>
     </g>
    </g>
    <g id="ytick_5">
     <g id="line2d_51">
      <path clip-path="url(#pfe0d05c56c)" d="M 62.45774 137.641179 
L 462.45476 137.641179 
" style="fill:none;stroke:#b0b0b0;stroke-linecap:square;stroke-width:0.8;"/>
     </g>
     <g id="line2d_52">
      <g>
       <use style="stroke:#000000;stroke-width:0.8;" x="62.45774" xlink:href="#m19485bf0c3" y="137.641179"/>
      </g>
     </g>
     <g id="text_11">
      <!-- 2,000,000 -->
      <defs>
       <path d="M 12.796875 55.515625 
L 7.328125 55.515625 
L 7.328125 68.5 
Q 12.546875 71.296875 17.84375 72.75 
Q 23.140625 74.21875 28.21875 74.21875 
Q 39.59375 74.21875 46.1875 68.703125 
Q 52.78125 63.1875 52.78125 53.71875 
Q 52.78125 43.015625 37.84375 28.125 
Q 36.671875 27 36.078125 26.421875 
L 17.671875 8.015625 
L 48.09375 8.015625 
L 48.09375 17 
L 53.8125 17 
L 53.8125 0 
L 6.78125 0 
L 6.78125 5.328125 
L 28.90625 27.390625 
Q 36.234375 34.71875 39.359375 40.84375 
Q 42.484375 46.96875 42.484375 53.71875 
Q 42.484375 61.078125 38.640625 65.234375 
Q 34.8125 69.390625 28.078125 69.390625 
Q 21.09375 69.390625 17.28125 65.921875 
Q 13.484375 62.453125 12.796875 55.515625 
z
" id="DejaVuSerif-50"/>
      </defs>
      <g transform="translate(14.74274 140.680554)scale(0.08 -0.08)">
       <use xlink:href="#DejaVuSerif-50"/>
       <use x="63.623047" xlink:href="#DejaVuSerif-44"/>
       <use x="95.410156" xlink:href="#DejaVuSerif-48"/>
       <use x="159.033203" xlink:href="#DejaVuSerif-48"/>
       <use x="222.65625" xlink:href="#DejaVuSerif-48"/>
       <use x="286.279297" xlink:href="#DejaVuSerif-44"/>
       <use x="318.066406" xlink:href="#DejaVuSerif-48"/>
       <use x="381.689453" xlink:href="#DejaVuSerif-48"/>
       <use x="445.3125" xlink:href="#DejaVuSerif-48"/>
      </g>
     </g>
    </g>
    <g id="ytick_6">
     <g id="line2d_53">
      <path clip-path="url(#pfe0d05c56c)" d="M 62.45774 110.06377 
L 462.45476 110.06377 
" style="fill:none;stroke:#b0b0b0;stroke-linecap:square;stroke-width:0.8;"/>
     </g>
     <g id="line2d_54">
      <g>
       <use style="stroke:#000000;stroke-width:0.8;" x="62.45774" xlink:href="#m19485bf0c3" y="110.06377"/>
      </g>
     </g>
     <g id="text_12">
      <!-- 2,500,000 -->
      <g transform="translate(14.74274 113.103145)scale(0.08 -0.08)">
       <use xlink:href="#DejaVuSerif-50"/>
       <use x="63.623047" xlink:href="#DejaVuSerif-44"/>
       <use x="95.410156" xlink:href="#DejaVuSerif-53"/>
       <use x="159.033203" xlink:href="#DejaVuSerif-48"/>
       <use x="222.65625" xlink:href="#DejaVuSerif-48"/>
       <use x="286.279297" xlink:href="#DejaVuSerif-44"/>
       <use x="318.066406" xlink:href="#DejaVuSerif-48"/>
       <use x="381.689453" xlink:href="#DejaVuSerif-48"/>
       <use x="445.3125" xlink:href="#DejaVuSerif-48"/>
      </g>
     </g>
    </g>
    <g id="ytick_7">
     <g id="line2d_55">
      <path clip-path="url(#pfe0d05c56c)" d="M 62.45774 82.486361 
L 462.45476 82.486361 
" style="fill:none;stroke:#b0b0b0;stroke-linecap:square;stroke-width:0.8;"/>
     </g>
     <g id="line2d_56">
      <g>
       <use style="stroke:#000000;stroke-width:0.8;" x="62.45774" xlink:href="#m19485bf0c3" y="82.486361"/>
      </g>
     </g>
     <g id="text_13">
      <!-- 3,000,000 -->
      <defs>
       <path d="M 9.71875 69.828125 
Q 15.4375 71.96875 20.671875 73.09375 
Q 25.921875 74.21875 30.515625 74.21875 
Q 41.21875 74.21875 47.21875 69.59375 
Q 53.21875 64.984375 53.21875 56.78125 
Q 53.21875 50.203125 49.0625 45.78125 
Q 44.921875 41.359375 37.3125 39.796875 
Q 46.296875 38.53125 51.25 33.28125 
Q 56.203125 28.03125 56.203125 19.671875 
Q 56.203125 9.46875 49.34375 4.015625 
Q 42.484375 -1.421875 29.59375 -1.421875 
Q 23.875 -1.421875 18.421875 -0.1875 
Q 12.984375 1.03125 7.625 3.515625 
L 7.625 17.671875 
L 13.09375 17.671875 
Q 13.578125 10.640625 17.828125 7.03125 
Q 22.078125 3.421875 29.78125 3.421875 
Q 37.25 3.421875 41.578125 7.734375 
Q 45.90625 12.0625 45.90625 19.578125 
Q 45.90625 28.171875 41.453125 32.59375 
Q 37.015625 37.015625 28.421875 37.015625 
L 23.78125 37.015625 
L 23.78125 42 
L 26.21875 42 
Q 34.765625 42 39.03125 45.53125 
Q 43.3125 49.078125 43.3125 56.203125 
Q 43.3125 62.59375 39.796875 65.984375 
Q 36.28125 69.390625 29.6875 69.390625 
Q 23.09375 69.390625 19.453125 66.265625 
Q 15.828125 63.140625 15.1875 56.984375 
L 9.71875 56.984375 
z
" id="DejaVuSerif-51"/>
      </defs>
      <g transform="translate(14.74274 85.525736)scale(0.08 -0.08)">
       <use xlink:href="#DejaVuSerif-51"/>
       <use x="63.623047" xlink:href="#DejaVuSerif-44"/>
       <use x="95.410156" xlink:href="#DejaVuSerif-48"/>
       <use x="159.033203" xlink:href="#DejaVuSerif-48"/>
       <use x="222.65625" xlink:href="#DejaVuSerif-48"/>
       <use x="286.279297" xlink:href="#DejaVuSerif-44"/>
       <use x="318.066406" xlink:href="#DejaVuSerif-48"/>
       <use x="381.689453" xlink:href="#DejaVuSerif-48"/>
       <use x="445.3125" xlink:href="#DejaVuSerif-48"/>
      </g>
     </g>
    </g>
    <g id="ytick_8">
     <g id="line2d_57">
      <path clip-path="url(#pfe0d05c56c)" d="M 62.45774 54.908952 
L 462.45476 54.908952 
" style="fill:none;stroke:#b0b0b0;stroke-linecap:square;stroke-width:0.8;"/>
     </g>
     <g id="line2d_58">
      <g>
       <use style="stroke:#000000;stroke-width:0.8;" x="62.45774" xlink:href="#m19485bf0c3" y="54.908952"/>
      </g>
     </g>
     <g id="text_14">
      <!-- 3,500,000 -->
      <g transform="translate(14.74274 57.948327)scale(0.08 -0.08)">
       <use xlink:href="#DejaVuSerif-51"/>
       <use x="63.623047" xlink:href="#DejaVuSerif-44"/>
       <use x="95.410156" xlink:href="#DejaVuSerif-53"/>
       <use x="159.033203" xlink:href="#DejaVuSerif-48"/>
       <use x="222.65625" xlink:href="#DejaVuSerif-48"/>
       <use x="286.279297" xlink:href="#DejaVuSerif-44"/>
       <use x="318.066406" xlink:href="#DejaVuSerif-48"/>
       <use x="381.689453" xlink:href="#DejaVuSerif-48"/>
       <use x="445.3125" xlink:href="#DejaVuSerif-48"/>
      </g>
     </g>
    </g>
    <g id="ytick_9">
     <g id="line2d_59">
      <path clip-path="url(#pfe0d05c56c)" d="M 62.45774 27.331542 
L 462.45476 27.331542 
" style="fill:none;stroke:#b0b0b0;stroke-linecap:square;stroke-width:0.8;"/>
     </g>
     <g id="line2d_60">
      <g>
       <use style="stroke:#000000;stroke-width:0.8;" x="62.45774" xlink:href="#m19485bf0c3" y="27.331542"/>
      </g>
     </g>
     <g id="text_15">
      <!-- 4,000,000 -->
      <defs>
       <path d="M 34.90625 24.703125 
L 34.90625 63.484375 
L 10.015625 24.703125 
z
M 56.390625 0 
L 23.1875 0 
L 23.1875 5.171875 
L 34.90625 5.171875 
L 34.90625 19.484375 
L 3.078125 19.484375 
L 3.078125 24.8125 
L 35.015625 74.21875 
L 44.671875 74.21875 
L 44.671875 24.703125 
L 58.59375 24.703125 
L 58.59375 19.484375 
L 44.671875 19.484375 
L 44.671875 5.171875 
L 56.390625 5.171875 
z
" id="DejaVuSerif-52"/>
      </defs>
      <g transform="translate(14.74274 30.370917)scale(0.08 -0.08)">
       <use xlink:href="#DejaVuSerif-52"/>
       <use x="63.623047" xlink:href="#DejaVuSerif-44"/>
       <use x="95.410156" xlink:href="#DejaVuSerif-48"/>
       <use x="159.033203" xlink:href="#DejaVuSerif-48"/>
       <use x="222.65625" xlink:href="#DejaVuSerif-48"/>
       <use x="286.279297" xlink:href="#DejaVuSerif-44"/>
       <use x="318.066406" xlink:href="#DejaVuSerif-48"/>
       <use x="381.689453" xlink:href="#DejaVuSerif-48"/>
       <use x="445.3125" xlink:href="#DejaVuSerif-48"/>
      </g>
     </g>
    </g>
    <g id="text_16">
     <!-- $CAD -->
     <defs>
      <path d="M 33.6875 3.328125 
Q 39.203125 3.8125 42.109375 6.5 
Q 45.015625 9.1875 45.015625 13.8125 
Q 45.015625 18.015625 42.140625 20.9375 
Q 39.265625 23.875 33.6875 25.390625 
z
M 28.8125 57.953125 
Q 23.78125 57.625 21 55.046875 
Q 18.21875 52.484375 18.21875 48.1875 
Q 18.21875 44.28125 20.78125 41.6875 
Q 23.34375 39.109375 28.8125 37.5 
z
M 8.59375 3.515625 
L 8.59375 17 
L 13.875 17 
Q 14.0625 10.296875 17.765625 6.875 
Q 21.484375 3.46875 28.8125 3.328125 
L 28.8125 27 
Q 17.578125 30.125 13.03125 34.203125 
Q 8.5 38.28125 8.5 45.015625 
Q 8.5 52.828125 13.859375 57.5625 
Q 19.234375 62.3125 28.8125 62.890625 
L 28.8125 75.984375 
L 33.6875 75.984375 
L 33.6875 62.890625 
Q 38.625 62.5 43.1875 61.296875 
Q 47.75 60.109375 52.09375 58.109375 
L 52.09375 45.3125 
L 46.78125 45.3125 
Q 46.1875 50.984375 42.8125 54.25 
Q 39.453125 57.515625 33.6875 57.953125 
L 33.6875 35.890625 
Q 45.703125 32.625 50.515625 28.390625 
Q 55.328125 24.171875 55.328125 17.09375 
Q 55.328125 8.984375 49.65625 4.09375 
Q 44 -0.78125 33.6875 -1.515625 
L 33.6875 -14.703125 
L 28.8125 -14.703125 
L 28.8125 -1.515625 
Q 24.125 -1.421875 19.09375 -0.171875 
Q 14.0625 1.078125 8.59375 3.515625 
z
" id="DejaVuSerif-36"/>
      <path d="M 70.515625 19.28125 
Q 67.28125 9.078125 59.6875 3.828125 
Q 52.09375 -1.421875 40.484375 -1.421875 
Q 33.34375 -1.421875 27.234375 1.015625 
Q 21.140625 3.46875 16.40625 8.203125 
Q 10.9375 13.671875 8.265625 20.625 
Q 5.609375 27.59375 5.609375 36.375 
Q 5.609375 53.375 15.421875 63.796875 
Q 25.25 74.21875 41.3125 74.21875 
Q 47.265625 74.21875 54 72.65625 
Q 60.75 71.09375 68.5 67.921875 
L 68.5 51.125 
L 62.984375 51.125 
Q 61.1875 60.296875 55.734375 64.640625 
Q 50.296875 69 40.484375 69 
Q 28.8125 69 22.796875 60.71875 
Q 16.796875 52.4375 16.796875 36.375 
Q 16.796875 20.359375 22.796875 12.078125 
Q 28.8125 3.8125 40.484375 3.8125 
Q 48.640625 3.8125 53.90625 7.6875 
Q 59.1875 11.578125 61.53125 19.28125 
z
" id="DejaVuSerif-67"/>
      <path d="M 24.703125 5.171875 
L 33.796875 5.171875 
Q 48 5.171875 55.59375 13.28125 
Q 63.1875 21.390625 63.1875 36.53125 
Q 63.1875 51.65625 55.609375 59.65625 
Q 48.046875 67.671875 33.796875 67.671875 
L 24.703125 67.671875 
z
M 5.515625 0 
L 5.515625 5.171875 
L 14.796875 5.171875 
L 14.796875 67.671875 
L 5.515625 67.671875 
L 5.515625 72.90625 
L 34.515625 72.90625 
Q 53.375 72.90625 63.890625 63.28125 
Q 74.421875 53.65625 74.421875 36.53125 
Q 74.421875 19.34375 63.875 9.671875 
Q 53.328125 0 34.515625 0 
z
" id="DejaVuSerif-68"/>
     </defs>
     <g transform="translate(9.07899 154.012622)rotate(-90)scale(0.08 -0.08)">
      <use xlink:href="#DejaVuSerif-36"/>
      <use x="63.623047" xlink:href="#DejaVuSerif-67"/>
      <use x="140.136719" xlink:href="#DejaVuSerif-65"/>
      <use x="212.353516" xlink:href="#DejaVuSerif-68"/>
     </g>
    </g>
   </g>
   <g id="line2d_61">
    <path clip-path="url(#pfe0d05c56c)" d="M 432.351985 247.950816 
L 292.559025 221.46117 
L 262.45625 137.33017 
L 232.353475 110.603603 
L 162.456995 56.950807 
L 62.45774 43.537608 
" style="fill:none;stroke:#000000;stroke-linecap:square;stroke-opacity:0.75;stroke-width:2;"/>
    <defs>
     <path d="M 0 2 
C 0.530406 2 1.03916 1.789267 1.414214 1.414214 
C 1.789267 1.03916 2 0.530406 2 0 
C 2 -0.530406 1.789267 -1.03916 1.414214 -1.414214 
C 1.03916 -1.789267 0.530406 -2 0 -2 
C -0.530406 -2 -1.03916 -1.789267 -1.414214 -1.414214 
C -1.789267 -1.03916 -2 -0.530406 -2 0 
C -2 0.530406 -1.789267 1.03916 -1.414214 1.414214 
C -1.03916 1.789267 -0.530406 2 0 2 
z
" id="m53894b0bc4" style="stroke:#000000;stroke-opacity:0.75;"/>
    </defs>
    <g clip-path="url(#pfe0d05c56c)">
     <use style="fill-opacity:0;stroke:#000000;stroke-opacity:0.75;" x="432.351985" xlink:href="#m53894b0bc4" y="247.950816"/>
     <use style="fill-opacity:0;stroke:#000000;stroke-opacity:0.75;" x="292.559025" xlink:href="#m53894b0bc4" y="221.46117"/>
     <use style="fill-opacity:0;stroke:#000000;stroke-opacity:0.75;" x="262.45625" xlink:href="#m53894b0bc4" y="137.33017"/>
     <use style="fill-opacity:0;stroke:#000000;stroke-opacity:0.75;" x="232.353475" xlink:href="#m53894b0bc4" y="110.603603"/>
     <use style="fill-opacity:0;stroke:#000000;stroke-opacity:0.75;" x="162.456995" xlink:href="#m53894b0bc4" y="56.950807"/>
     <use style="fill-opacity:0;stroke:#000000;stroke-opacity:0.75;" x="62.45774" xlink:href="#m53894b0bc4" y="43.537608"/>
    </g>
   </g>
   <g id="line2d_62">
    <path clip-path="url(#pfe0d05c56c)" d="M 362.455505 247.950816 
L 292.559025 221.46117 
L 262.45625 137.33017 
L 232.353475 110.603603 
L 162.456995 56.950807 
L 62.45774 43.537608 
" style="fill:none;stroke:#84ff00;stroke-linecap:square;stroke-opacity:0.75;stroke-width:2;"/>
    <defs>
     <path d="M 0 2 
C 0.530406 2 1.03916 1.789267 1.414214 1.414214 
C 1.789267 1.03916 2 0.530406 2 0 
C 2 -0.530406 1.789267 -1.03916 1.414214 -1.414214 
C 1.03916 -1.789267 0.530406 -2 0 -2 
C -0.530406 -2 -1.03916 -1.789267 -1.414214 -1.414214 
C -1.789267 -1.03916 -2 -0.530406 -2 0 
C -2 0.530406 -1.789267 1.03916 -1.414214 1.414214 
C -1.03916 1.789267 -0.530406 2 0 2 
z
" id="m1df22a8709" style="stroke:#84ff00;stroke-opacity:0.75;"/>
    </defs>
    <g clip-path="url(#pfe0d05c56c)">
     <use style="fill-opacity:0;stroke:#84ff00;stroke-opacity:0.75;" x="362.455505" xlink:href="#m1df22a8709" y="247.950816"/>
     <use style="fill-opacity:0;stroke:#84ff00;stroke-opacity:0.75;" x="292.559025" xlink:href="#m1df22a8709" y="221.46117"/>
     <use style="fill-opacity:0;stroke:#84ff00;stroke-opacity:0.75;" x="262.45625" xlink:href="#m1df22a8709" y="137.33017"/>
     <use style="fill-opacity:0;stroke:#84ff00;stroke-opacity:0.75;" x="232.353475" xlink:href="#m1df22a8709" y="110.603603"/>
     <use style="fill-opacity:0;stroke:#84ff00;stroke-opacity:0.75;" x="162.456995" xlink:href="#m1df22a8709" y="56.950807"/>
     <use style="fill-opacity:0;stroke:#84ff00;stroke-opacity:0.75;" x="62.45774" xlink:href="#m1df22a8709" y="43.537608"/>
    </g>
   </g>
   <g id="line2d_63">
    <path clip-path="url(#pfe0d05c56c)" d="M 432.351985 247.950816 
L 292.559025 223.670429 
L 262.45625 150.598653 
L 232.353475 128.463441 
L 162.456995 82.687313 
L 62.45774 71.243281 
" style="fill:none;stroke:#00fff6;stroke-linecap:square;stroke-opacity:0.75;stroke-width:2;"/>
    <defs>
     <path d="M 0 2 
C 0.530406 2 1.03916 1.789267 1.414214 1.414214 
C 1.789267 1.03916 2 0.530406 2 0 
C 2 -0.530406 1.789267 -1.03916 1.414214 -1.414214 
C 1.03916 -1.789267 0.530406 -2 0 -2 
C -0.530406 -2 -1.03916 -1.789267 -1.414214 -1.414214 
C -1.789267 -1.03916 -2 -0.530406 -2 0 
C -2 0.530406 -1.789267 1.03916 -1.414214 1.414214 
C -1.03916 1.789267 -0.530406 2 0 2 
z
" id="mee33914e60" style="stroke:#00fff6;stroke-opacity:0.75;"/>
    </defs>
    <g clip-path="url(#pfe0d05c56c)">
     <use style="fill-opacity:0;stroke:#00fff6;stroke-opacity:0.75;" x="432.351985" xlink:href="#mee33914e60" y="247.950816"/>
     <use style="fill-opacity:0;stroke:#00fff6;stroke-opacity:0.75;" x="292.559025" xlink:href="#mee33914e60" y="223.670429"/>
     <use style="fill-opacity:0;stroke:#00fff6;stroke-opacity:0.75;" x="262.45625" xlink:href="#mee33914e60" y="150.598653"/>
     <use style="fill-opacity:0;stroke:#00fff6;stroke-opacity:0.75;" x="232.353475" xlink:href="#mee33914e60" y="128.463441"/>
     <use style="fill-opacity:0;stroke:#00fff6;stroke-opacity:0.75;" x="162.456995" xlink:href="#mee33914e60" y="82.687313"/>
     <use style="fill-opacity:0;stroke:#00fff6;stroke-opacity:0.75;" x="62.45774" xlink:href="#mee33914e60" y="71.243281"/>
    </g>
   </g>
   <g id="line2d_64">
    <path clip-path="url(#pfe0d05c56c)" d="M 432.351985 247.950816 
L 292.559025 205.443011 
L 262.45625 101.996522 
L 232.353475 90.241233 
L 162.456995 48.488886 
L 62.45774 38.050799 
" style="fill:none;stroke:#7200ff;stroke-linecap:square;stroke-opacity:0.75;stroke-width:2;"/>
    <defs>
     <path d="M 0 2 
C 0.530406 2 1.03916 1.789267 1.414214 1.414214 
C 1.789267 1.03916 2 0.530406 2 0 
C 2 -0.530406 1.789267 -1.03916 1.414214 -1.414214 
C 1.03916 -1.789267 0.530406 -2 0 -2 
C -0.530406 -2 -1.03916 -1.789267 -1.414214 -1.414214 
C -1.789267 -1.03916 -2 -0.530406 -2 0 
C -2 0.530406 -1.789267 1.03916 -1.414214 1.414214 
C -1.03916 1.789267 -0.530406 2 0 2 
z
" id="mc8efff3592" style="stroke:#7200ff;stroke-opacity:0.75;"/>
    </defs>
    <g clip-path="url(#pfe0d05c56c)">
     <use style="fill-opacity:0;stroke:#7200ff;stroke-opacity:0.75;" x="432.351985" xlink:href="#mc8efff3592" y="247.950816"/>
     <use style="fill-opacity:0;stroke:#7200ff;stroke-opacity:0.75;" x="292.559025" xlink:href="#mc8efff3592" y="205.443011"/>
     <use style="fill-opacity:0;stroke:#7200ff;stroke-opacity:0.75;" x="262.45625" xlink:href="#mc8efff3592" y="101.996522"/>
     <use style="fill-opacity:0;stroke:#7200ff;stroke-opacity:0.75;" x="232.353475" xlink:href="#mc8efff3592" y="90.241233"/>
     <use style="fill-opacity:0;stroke:#7200ff;stroke-opacity:0.75;" x="162.456995" xlink:href="#mc8efff3592" y="48.488886"/>
     <use style="fill-opacity:0;stroke:#7200ff;stroke-opacity:0.75;" x="62.45774" xlink:href="#mc8efff3592" y="38.050799"/>
    </g>
   </g>
   <g id="line2d_65">
    <path clip-path="url(#pfe0d05c56c)" d="M 432.351985 247.950816 
L 292.559025 201.030625 
L 262.45625 101.996522 
L 232.353475 90.241233 
L 162.456995 47.38579 
L 62.45774 36.671929 
" style="fill:none;stroke:#ff0018;stroke-linecap:square;stroke-opacity:0.75;stroke-width:2;"/>
    <defs>
     <path d="M 0 2 
C 0.530406 2 1.03916 1.789267 1.414214 1.414214 
C 1.789267 1.03916 2 0.530406 2 0 
C 2 -0.530406 1.789267 -1.03916 1.414214 -1.414214 
C 1.03916 -1.789267 0.530406 -2 0 -2 
C -0.530406 -2 -1.03916 -1.789267 -1.414214 -1.414214 
C -1.789267 -1.03916 -2 -0.530406 -2 0 
C -2 0.530406 -1.789267 1.03916 -1.414214 1.414214 
C -1.03916 1.789267 -0.530406 2 0 2 
z
" id="m138e9a3cee" style="stroke:#ff0018;stroke-opacity:0.75;"/>
    </defs>
    <g clip-path="url(#pfe0d05c56c)">
     <use style="fill-opacity:0;stroke:#ff0018;stroke-opacity:0.75;" x="432.351985" xlink:href="#m138e9a3cee" y="247.950816"/>
     <use style="fill-opacity:0;stroke:#ff0018;stroke-opacity:0.75;" x="292.559025" xlink:href="#m138e9a3cee" y="201.030625"/>
     <use style="fill-opacity:0;stroke:#ff0018;stroke-opacity:0.75;" x="262.45625" xlink:href="#m138e9a3cee" y="101.996522"/>
     <use style="fill-opacity:0;stroke:#ff0018;stroke-opacity:0.75;" x="232.353475" xlink:href="#m138e9a3cee" y="90.241233"/>
     <use style="fill-opacity:0;stroke:#ff0018;stroke-opacity:0.75;" x="162.456995" xlink:href="#m138e9a3cee" y="47.38579"/>
     <use style="fill-opacity:0;stroke:#ff0018;stroke-opacity:0.75;" x="62.45774" xlink:href="#m138e9a3cee" y="36.671929"/>
    </g>
   </g>
   <g id="patch_3">
    <path d="M 62.45774 258.51476 
L 62.45774 26.107985 
" style="fill:none;stroke:#000000;stroke-linecap:square;stroke-linejoin:miter;stroke-width:0.8;"/>
   </g>
   <g id="patch_4">
    <path d="M 462.45476 258.51476 
L 462.45476 26.107985 
" style="fill:none;stroke:#000000;stroke-linecap:square;stroke-linejoin:miter;stroke-width:0.8;"/>
   </g>
   <g id="patch_5">
    <path d="M 62.45774 258.51476 
L 462.45476 258.51476 
" style="fill:none;stroke:#000000;stroke-linecap:square;stroke-linejoin:miter;stroke-width:0.8;"/>
   </g>
   <g id="patch_6">
    <path d="M 62.45774 26.107985 
L 462.45476 26.107985 
" style="fill:none;stroke:#000000;stroke-linecap:square;stroke-linejoin:miter;stroke-width:0.8;"/>
   </g>
   <g id="legend_1">
    <g id="patch_7">
     <path d="M 304.40476 92.110485 
L 456.85476 92.110485 
Q 458.45476 92.110485 458.45476 90.510485 
L 458.45476 31.707985 
Q 458.45476 30.107985 456.85476 30.107985 
L 304.40476 30.107985 
Q 302.80476 30.107985 302.80476 31.707985 
L 302.80476 90.510485 
Q 302.80476 92.110485 304.40476 92.110485 
z
" style="fill:#ffffff;opacity:0.8;stroke:#cccccc;stroke-linejoin:miter;"/>
    </g>
    <g id="line2d_66">
     <path d="M 306.00476 36.586735 
L 322.00476 36.586735 
" style="fill:none;stroke:#000000;stroke-linecap:square;stroke-opacity:0.75;stroke-width:2;"/>
    </g>
    <g id="line2d_67">
     <g>
      <use style="fill-opacity:0;stroke:#000000;stroke-opacity:0.75;" x="314.00476" xlink:href="#m53894b0bc4" y="36.586735"/>
     </g>
    </g>
    <g id="text_17">
     <!-- 'tut8' annualized = 154,427 -->
     <defs>
      <path d="M 17.578125 72.90625 
L 17.578125 45.796875 
L 9.8125 45.796875 
L 9.8125 72.90625 
z
" id="DejaVuSerif-39"/>
      <path d="M 10.796875 46.6875 
L 2.875 46.6875 
L 2.875 51.90625 
L 10.796875 51.90625 
L 10.796875 68.015625 
L 19.828125 68.015625 
L 19.828125 51.90625 
L 36.71875 51.90625 
L 36.71875 46.6875 
L 19.828125 46.6875 
L 19.828125 13.71875 
Q 19.828125 7.125 21.09375 5.265625 
Q 22.359375 3.421875 25.78125 3.421875 
Q 29.296875 3.421875 30.90625 5.484375 
Q 32.515625 7.5625 32.625 12.203125 
L 39.40625 12.203125 
Q 39.015625 5.125 35.546875 1.84375 
Q 32.078125 -1.421875 25 -1.421875 
Q 17.234375 -1.421875 14.015625 2.015625 
Q 10.796875 5.46875 10.796875 13.71875 
z
" id="DejaVuSerif-116"/>
      <path d="M 35.40625 51.90625 
L 52.203125 51.90625 
L 52.203125 5.171875 
L 60.6875 5.171875 
L 60.6875 0 
L 43.21875 0 
L 43.21875 9.1875 
Q 40.71875 4 36.765625 1.28125 
Q 32.8125 -1.421875 27.59375 -1.421875 
Q 18.953125 -1.421875 14.875 3.484375 
Q 10.796875 8.40625 10.796875 18.890625 
L 10.796875 46.6875 
L 2.6875 46.6875 
L 2.6875 51.90625 
L 19.828125 51.90625 
L 19.828125 21.6875 
Q 19.828125 12.203125 22.140625 8.6875 
Q 24.46875 5.171875 30.421875 5.171875 
Q 36.671875 5.171875 39.9375 9.765625 
Q 43.21875 14.359375 43.21875 23.09375 
L 43.21875 46.6875 
L 35.40625 46.6875 
z
" id="DejaVuSerif-117"/>
      <path d="M 46.578125 19.921875 
Q 46.578125 27.734375 42.6875 32.046875 
Q 38.8125 36.375 31.78125 36.375 
Q 24.75 36.375 20.875 32.046875 
Q 17 27.734375 17 19.921875 
Q 17 12.0625 20.875 7.734375 
Q 24.75 3.421875 31.78125 3.421875 
Q 38.8125 3.421875 42.6875 7.734375 
Q 46.578125 12.0625 46.578125 19.921875 
z
M 44.578125 55.328125 
Q 44.578125 61.96875 41.203125 65.671875 
Q 37.84375 69.390625 31.78125 69.390625 
Q 25.78125 69.390625 22.390625 65.671875 
Q 19 61.96875 19 55.328125 
Q 19 48.640625 22.390625 44.921875 
Q 25.78125 41.21875 31.78125 41.21875 
Q 37.84375 41.21875 41.203125 44.921875 
Q 44.578125 48.640625 44.578125 55.328125 
z
M 39.3125 38.8125 
Q 47.609375 37.703125 52.25 32.6875 
Q 56.890625 27.6875 56.890625 19.921875 
Q 56.890625 9.671875 50.390625 4.125 
Q 43.890625 -1.421875 31.78125 -1.421875 
Q 19.734375 -1.421875 13.203125 4.125 
Q 6.6875 9.671875 6.6875 19.921875 
Q 6.6875 27.6875 11.328125 32.6875 
Q 15.96875 37.703125 24.3125 38.8125 
Q 16.9375 40.140625 13 44.40625 
Q 9.078125 48.6875 9.078125 55.328125 
Q 9.078125 64.109375 15.125 69.15625 
Q 21.1875 74.21875 31.78125 74.21875 
Q 42.390625 74.21875 48.4375 69.15625 
Q 54.5 64.109375 54.5 55.328125 
Q 54.5 48.6875 50.5625 44.40625 
Q 46.625 40.140625 39.3125 38.8125 
z
" id="DejaVuSerif-56"/>
      <path id="DejaVuSerif-32"/>
      <path d="M 39.796875 16.3125 
L 39.796875 27.296875 
L 28.21875 27.296875 
Q 21.53125 27.296875 18.25 24.40625 
Q 14.984375 21.53125 14.984375 15.578125 
Q 14.984375 10.15625 18.296875 6.984375 
Q 21.625 3.8125 27.296875 3.8125 
Q 32.90625 3.8125 36.34375 7.28125 
Q 39.796875 10.75 39.796875 16.3125 
z
M 48.78125 32.421875 
L 48.78125 5.171875 
L 56.78125 5.171875 
L 56.78125 0 
L 39.796875 0 
L 39.796875 5.609375 
Q 36.8125 2 32.90625 0.28125 
Q 29 -1.421875 23.78125 -1.421875 
Q 15.140625 -1.421875 10.0625 3.171875 
Q 4.984375 7.765625 4.984375 15.578125 
Q 4.984375 23.640625 10.796875 28.078125 
Q 16.609375 32.515625 27.203125 32.515625 
L 39.796875 32.515625 
L 39.796875 36.078125 
Q 39.796875 42 36.203125 45.234375 
Q 32.625 48.484375 26.125 48.484375 
Q 20.75 48.484375 17.578125 46.046875 
Q 14.40625 43.609375 13.625 38.8125 
L 8.984375 38.8125 
L 8.984375 49.3125 
Q 13.671875 51.3125 18.09375 52.3125 
Q 22.515625 53.328125 26.703125 53.328125 
Q 37.5 53.328125 43.140625 47.96875 
Q 48.78125 42.625 48.78125 32.421875 
z
" id="DejaVuSerif-97"/>
      <path d="M 4.109375 0 
L 4.109375 5.171875 
L 12.203125 5.171875 
L 12.203125 46.6875 
L 3.609375 46.6875 
L 3.609375 51.90625 
L 21.1875 51.90625 
L 21.1875 42.671875 
Q 23.6875 47.953125 27.65625 50.640625 
Q 31.640625 53.328125 36.921875 53.328125 
Q 45.515625 53.328125 49.5625 48.390625 
Q 53.609375 43.453125 53.609375 33.015625 
L 53.609375 5.171875 
L 61.625 5.171875 
L 61.625 0 
L 36.8125 0 
L 36.8125 5.171875 
L 44.578125 5.171875 
L 44.578125 30.171875 
Q 44.578125 39.703125 42.234375 43.234375 
Q 39.890625 46.78125 33.984375 46.78125 
Q 27.734375 46.78125 24.453125 42.203125 
Q 21.1875 37.640625 21.1875 28.90625 
L 21.1875 5.171875 
L 29 5.171875 
L 29 0 
z
" id="DejaVuSerif-110"/>
      <path d="M 20.515625 5.171875 
L 29 5.171875 
L 29 0 
L 2.875 0 
L 2.875 5.171875 
L 11.53125 5.171875 
L 11.53125 70.796875 
L 2.875 70.796875 
L 2.875 75.984375 
L 20.515625 75.984375 
z
" id="DejaVuSerif-108"/>
      <path d="M 9.71875 68.015625 
Q 9.71875 70.265625 11.34375 71.921875 
Q 12.984375 73.578125 15.28125 73.578125 
Q 17.53125 73.578125 19.15625 71.921875 
Q 20.796875 70.265625 20.796875 68.015625 
Q 20.796875 65.71875 19.1875 64.109375 
Q 17.578125 62.5 15.28125 62.5 
Q 12.984375 62.5 11.34375 64.109375 
Q 9.71875 65.71875 9.71875 68.015625 
z
M 21.1875 5.171875 
L 29.6875 5.171875 
L 29.6875 0 
L 3.609375 0 
L 3.609375 5.171875 
L 12.203125 5.171875 
L 12.203125 46.6875 
L 3.609375 46.6875 
L 3.609375 51.90625 
L 21.1875 51.90625 
z
" id="DejaVuSerif-105"/>
      <path d="M 4 0 
L 4 4.203125 
L 36.53125 46.6875 
L 10.796875 46.6875 
L 10.796875 37.703125 
L 5.609375 37.703125 
L 5.609375 51.90625 
L 48.09375 51.90625 
L 48.09375 47.703125 
L 15.578125 5.171875 
L 43.796875 5.171875 
L 43.796875 14.59375 
L 49.03125 14.59375 
L 49.03125 0 
z
" id="DejaVuSerif-122"/>
      <path d="M 54.203125 25 
L 15.484375 25 
L 15.484375 24.609375 
Q 15.484375 14.109375 19.4375 8.765625 
Q 23.390625 3.421875 31.109375 3.421875 
Q 37.015625 3.421875 40.796875 6.515625 
Q 44.578125 9.625 46.09375 15.71875 
L 53.328125 15.71875 
Q 51.171875 7.171875 45.375 2.875 
Q 39.59375 -1.421875 30.171875 -1.421875 
Q 18.796875 -1.421875 11.890625 6.078125 
Q 4.984375 13.578125 4.984375 25.984375 
Q 4.984375 38.28125 11.765625 45.796875 
Q 18.5625 53.328125 29.59375 53.328125 
Q 41.359375 53.328125 47.65625 46.0625 
Q 53.953125 38.8125 54.203125 25 
z
M 43.609375 30.171875 
Q 43.3125 39.265625 39.765625 43.875 
Q 36.234375 48.484375 29.59375 48.484375 
Q 23.390625 48.484375 19.828125 43.84375 
Q 16.265625 39.203125 15.484375 30.171875 
z
" id="DejaVuSerif-101"/>
      <path d="M 52.484375 5.171875 
L 61.078125 5.171875 
L 61.078125 0 
L 43.5 0 
L 43.5 8.109375 
Q 40.875 3.21875 36.796875 0.890625 
Q 32.71875 -1.421875 26.703125 -1.421875 
Q 17.140625 -1.421875 11.0625 6.171875 
Q 4.984375 13.765625 4.984375 25.984375 
Q 4.984375 38.1875 11.03125 45.75 
Q 17.09375 53.328125 26.703125 53.328125 
Q 32.71875 53.328125 36.796875 51 
Q 40.875 48.6875 43.5 43.796875 
L 43.5 70.796875 
L 35.015625 70.796875 
L 35.015625 75.984375 
L 52.484375 75.984375 
z
M 43.5 23.390625 
L 43.5 28.515625 
Q 43.5 37.84375 39.90625 42.765625 
Q 36.328125 47.703125 29.5 47.703125 
Q 22.5625 47.703125 19.015625 42.234375 
Q 15.484375 36.765625 15.484375 25.984375 
Q 15.484375 15.234375 19.015625 9.71875 
Q 22.5625 4.203125 29.5 4.203125 
Q 36.328125 4.203125 39.90625 9.109375 
Q 43.5 14.015625 43.5 23.390625 
z
" id="DejaVuSerif-100"/>
      <path d="M 10.59375 45.21875 
L 73.1875 45.21875 
L 73.1875 37.40625 
L 10.59375 37.40625 
z
M 10.59375 25.296875 
L 73.1875 25.296875 
L 73.1875 17.484375 
L 10.59375 17.484375 
z
" id="DejaVuSerif-61"/>
      <path d="M 56.390625 67.921875 
L 27.875 0 
L 20.609375 0 
L 47.796875 64.890625 
L 14.109375 64.890625 
L 14.109375 55.90625 
L 8.40625 55.90625 
L 8.40625 72.90625 
L 56.390625 72.90625 
z
" id="DejaVuSerif-55"/>
     </defs>
     <g transform="translate(328.40476 39.386735)scale(0.08 -0.08)">
      <use xlink:href="#DejaVuSerif-39"/>
      <use x="27.490234" xlink:href="#DejaVuSerif-116"/>
      <use x="67.675781" xlink:href="#DejaVuSerif-117"/>
      <use x="132.080078" xlink:href="#DejaVuSerif-116"/>
      <use x="172.265625" xlink:href="#DejaVuSerif-56"/>
      <use x="235.888672" xlink:href="#DejaVuSerif-39"/>
      <use x="263.378906" xlink:href="#DejaVuSerif-32"/>
      <use x="295.166016" xlink:href="#DejaVuSerif-97"/>
      <use x="354.785156" xlink:href="#DejaVuSerif-110"/>
      <use x="419.189453" xlink:href="#DejaVuSerif-110"/>
      <use x="483.59375" xlink:href="#DejaVuSerif-117"/>
      <use x="547.998047" xlink:href="#DejaVuSerif-97"/>
      <use x="607.617188" xlink:href="#DejaVuSerif-108"/>
      <use x="639.599609" xlink:href="#DejaVuSerif-105"/>
      <use x="671.582031" xlink:href="#DejaVuSerif-122"/>
      <use x="724.267578" xlink:href="#DejaVuSerif-101"/>
      <use x="783.447266" xlink:href="#DejaVuSerif-100"/>
      <use x="847.460938" xlink:href="#DejaVuSerif-32"/>
      <use x="879.248047" xlink:href="#DejaVuSerif-61"/>
      <use x="963.037109" xlink:href="#DejaVuSerif-32"/>
      <use x="994.824219" xlink:href="#DejaVuSerif-49"/>
      <use x="1058.447266" xlink:href="#DejaVuSerif-53"/>
      <use x="1122.070312" xlink:href="#DejaVuSerif-52"/>
      <use x="1185.693359" xlink:href="#DejaVuSerif-44"/>
      <use x="1217.480469" xlink:href="#DejaVuSerif-52"/>
      <use x="1281.103516" xlink:href="#DejaVuSerif-50"/>
      <use x="1344.726562" xlink:href="#DejaVuSerif-55"/>
     </g>
    </g>
    <g id="line2d_68">
     <path d="M 306.00476 48.329235 
L 322.00476 48.329235 
" style="fill:none;stroke:#84ff00;stroke-linecap:square;stroke-opacity:0.75;stroke-width:2;"/>
    </g>
    <g id="line2d_69">
     <g>
      <use style="fill-opacity:0;stroke:#84ff00;stroke-opacity:0.75;" x="314.00476" xlink:href="#m1df22a8709" y="48.329235"/>
     </g>
    </g>
    <g id="text_18">
     <!-- 'tut8_01' annualized = 58,371 -->
     <defs>
      <path d="M 50 -19.671875 
L 50 -23.578125 
L 0 -23.578125 
L 0 -19.671875 
z
" id="DejaVuSerif-95"/>
     </defs>
     <g transform="translate(328.40476 51.129235)scale(0.08 -0.08)">
      <use xlink:href="#DejaVuSerif-39"/>
      <use x="27.490234" xlink:href="#DejaVuSerif-116"/>
      <use x="67.675781" xlink:href="#DejaVuSerif-117"/>
      <use x="132.080078" xlink:href="#DejaVuSerif-116"/>
      <use x="172.265625" xlink:href="#DejaVuSerif-56"/>
      <use x="235.888672" xlink:href="#DejaVuSerif-95"/>
      <use x="285.888672" xlink:href="#DejaVuSerif-48"/>
      <use x="349.511719" xlink:href="#DejaVuSerif-49"/>
      <use x="413.134766" xlink:href="#DejaVuSerif-39"/>
      <use x="440.625" xlink:href="#DejaVuSerif-32"/>
      <use x="472.412109" xlink:href="#DejaVuSerif-97"/>
      <use x="532.03125" xlink:href="#DejaVuSerif-110"/>
      <use x="596.435547" xlink:href="#DejaVuSerif-110"/>
      <use x="660.839844" xlink:href="#DejaVuSerif-117"/>
      <use x="725.244141" xlink:href="#DejaVuSerif-97"/>
      <use x="784.863281" xlink:href="#DejaVuSerif-108"/>
      <use x="816.845703" xlink:href="#DejaVuSerif-105"/>
      <use x="848.828125" xlink:href="#DejaVuSerif-122"/>
      <use x="901.513672" xlink:href="#DejaVuSerif-101"/>
      <use x="960.693359" xlink:href="#DejaVuSerif-100"/>
      <use x="1024.707031" xlink:href="#DejaVuSerif-32"/>
      <use x="1056.494141" xlink:href="#DejaVuSerif-61"/>
      <use x="1140.283203" xlink:href="#DejaVuSerif-32"/>
      <use x="1172.070312" xlink:href="#DejaVuSerif-53"/>
      <use x="1235.693359" xlink:href="#DejaVuSerif-56"/>
      <use x="1299.316406" xlink:href="#DejaVuSerif-44"/>
      <use x="1331.103516" xlink:href="#DejaVuSerif-51"/>
      <use x="1394.726562" xlink:href="#DejaVuSerif-55"/>
      <use x="1458.349609" xlink:href="#DejaVuSerif-49"/>
     </g>
    </g>
    <g id="line2d_70">
     <path d="M 306.00476 60.294235 
L 322.00476 60.294235 
" style="fill:none;stroke:#00fff6;stroke-linecap:square;stroke-opacity:0.75;stroke-width:2;"/>
    </g>
    <g id="line2d_71">
     <g>
      <use style="fill-opacity:0;stroke:#00fff6;stroke-opacity:0.75;" x="314.00476" xlink:href="#mee33914e60" y="60.294235"/>
     </g>
    </g>
    <g id="text_19">
     <!-- 'tut8_02' annualized = 139,934 -->
     <defs>
      <path d="M 46.78125 32.671875 
Q 43.5 29 39.25 27.1875 
Q 35.015625 25.390625 29.6875 25.390625 
Q 18.84375 25.390625 12.5625 31.9375 
Q 6.296875 38.484375 6.296875 49.8125 
Q 6.296875 60.890625 13.109375 67.546875 
Q 19.921875 74.21875 31.296875 74.21875 
Q 43.65625 74.21875 50.265625 65.015625 
Q 56.890625 55.8125 56.890625 38.71875 
Q 56.890625 19.578125 49.015625 9.078125 
Q 41.15625 -1.421875 26.90625 -1.421875 
Q 23.046875 -1.421875 18.796875 -0.6875 
Q 14.546875 0.046875 10.109375 1.515625 
L 10.109375 13.625 
L 15.578125 13.625 
Q 16.21875 8.6875 19.390625 6.046875 
Q 22.5625 3.421875 27.875 3.421875 
Q 37.359375 3.421875 41.984375 10.5625 
Q 46.625 17.71875 46.78125 32.671875 
z
M 30.90625 69.390625 
Q 23.96875 69.390625 20.28125 64.328125 
Q 16.609375 59.28125 16.609375 49.8125 
Q 16.609375 40.328125 20.28125 35.25 
Q 23.96875 30.171875 30.90625 30.171875 
Q 37.84375 30.171875 41.53125 35.078125 
Q 45.21875 39.984375 45.21875 49.21875 
Q 45.21875 58.9375 41.5 64.15625 
Q 37.796875 69.390625 30.90625 69.390625 
z
" id="DejaVuSerif-57"/>
     </defs>
     <g transform="translate(328.40476 63.094235)scale(0.08 -0.08)">
      <use xlink:href="#DejaVuSerif-39"/>
      <use x="27.490234" xlink:href="#DejaVuSerif-116"/>
      <use x="67.675781" xlink:href="#DejaVuSerif-117"/>
      <use x="132.080078" xlink:href="#DejaVuSerif-116"/>
      <use x="172.265625" xlink:href="#DejaVuSerif-56"/>
      <use x="235.888672" xlink:href="#DejaVuSerif-95"/>
      <use x="285.888672" xlink:href="#DejaVuSerif-48"/>
      <use x="349.511719" xlink:href="#DejaVuSerif-50"/>
      <use x="413.134766" xlink:href="#DejaVuSerif-39"/>
      <use x="440.625" xlink:href="#DejaVuSerif-32"/>
      <use x="472.412109" xlink:href="#DejaVuSerif-97"/>
      <use x="532.03125" xlink:href="#DejaVuSerif-110"/>
      <use x="596.435547" xlink:href="#DejaVuSerif-110"/>
      <use x="660.839844" xlink:href="#DejaVuSerif-117"/>
      <use x="725.244141" xlink:href="#DejaVuSerif-97"/>
      <use x="784.863281" xlink:href="#DejaVuSerif-108"/>
      <use x="816.845703" xlink:href="#DejaVuSerif-105"/>
      <use x="848.828125" xlink:href="#DejaVuSerif-122"/>
      <use x="901.513672" xlink:href="#DejaVuSerif-101"/>
      <use x="960.693359" xlink:href="#DejaVuSerif-100"/>
      <use x="1024.707031" xlink:href="#DejaVuSerif-32"/>
      <use x="1056.494141" xlink:href="#DejaVuSerif-61"/>
      <use x="1140.283203" xlink:href="#DejaVuSerif-32"/>
      <use x="1172.070312" xlink:href="#DejaVuSerif-49"/>
      <use x="1235.693359" xlink:href="#DejaVuSerif-51"/>
      <use x="1299.316406" xlink:href="#DejaVuSerif-57"/>
      <use x="1362.939453" xlink:href="#DejaVuSerif-44"/>
      <use x="1394.726562" xlink:href="#DejaVuSerif-57"/>
      <use x="1458.349609" xlink:href="#DejaVuSerif-51"/>
      <use x="1521.972656" xlink:href="#DejaVuSerif-52"/>
     </g>
    </g>
    <g id="line2d_72">
     <path d="M 306.00476 72.259235 
L 322.00476 72.259235 
" style="fill:none;stroke:#7200ff;stroke-linecap:square;stroke-opacity:0.75;stroke-width:2;"/>
    </g>
    <g id="line2d_73">
     <g>
      <use style="fill-opacity:0;stroke:#7200ff;stroke-opacity:0.75;" x="314.00476" xlink:href="#mc8efff3592" y="72.259235"/>
     </g>
    </g>
    <g id="text_20">
     <!-- 'tut8_03' annualized = 232,480 -->
     <g transform="translate(328.40476 75.059235)scale(0.08 -0.08)">
      <use xlink:href="#DejaVuSerif-39"/>
      <use x="27.490234" xlink:href="#DejaVuSerif-116"/>
      <use x="67.675781" xlink:href="#DejaVuSerif-117"/>
      <use x="132.080078" xlink:href="#DejaVuSerif-116"/>
      <use x="172.265625" xlink:href="#DejaVuSerif-56"/>
      <use x="235.888672" xlink:href="#DejaVuSerif-95"/>
      <use x="285.888672" xlink:href="#DejaVuSerif-48"/>
      <use x="349.511719" xlink:href="#DejaVuSerif-51"/>
      <use x="413.134766" xlink:href="#DejaVuSerif-39"/>
      <use x="440.625" xlink:href="#DejaVuSerif-32"/>
      <use x="472.412109" xlink:href="#DejaVuSerif-97"/>
      <use x="532.03125" xlink:href="#DejaVuSerif-110"/>
      <use x="596.435547" xlink:href="#DejaVuSerif-110"/>
      <use x="660.839844" xlink:href="#DejaVuSerif-117"/>
      <use x="725.244141" xlink:href="#DejaVuSerif-97"/>
      <use x="784.863281" xlink:href="#DejaVuSerif-108"/>
      <use x="816.845703" xlink:href="#DejaVuSerif-105"/>
      <use x="848.828125" xlink:href="#DejaVuSerif-122"/>
      <use x="901.513672" xlink:href="#DejaVuSerif-101"/>
      <use x="960.693359" xlink:href="#DejaVuSerif-100"/>
      <use x="1024.707031" xlink:href="#DejaVuSerif-32"/>
      <use x="1056.494141" xlink:href="#DejaVuSerif-61"/>
      <use x="1140.283203" xlink:href="#DejaVuSerif-32"/>
      <use x="1172.070312" xlink:href="#DejaVuSerif-50"/>
      <use x="1235.693359" xlink:href="#DejaVuSerif-51"/>
      <use x="1299.316406" xlink:href="#DejaVuSerif-50"/>
      <use x="1362.939453" xlink:href="#DejaVuSerif-44"/>
      <use x="1394.726562" xlink:href="#DejaVuSerif-52"/>
      <use x="1458.349609" xlink:href="#DejaVuSerif-56"/>
      <use x="1521.972656" xlink:href="#DejaVuSerif-48"/>
     </g>
    </g>
    <g id="line2d_74">
     <path d="M 306.00476 84.224235 
L 322.00476 84.224235 
" style="fill:none;stroke:#ff0018;stroke-linecap:square;stroke-opacity:0.75;stroke-width:2;"/>
    </g>
    <g id="line2d_75">
     <g>
      <use style="fill-opacity:0;stroke:#ff0018;stroke-opacity:0.75;" x="314.00476" xlink:href="#m138e9a3cee" y="84.224235"/>
     </g>
    </g>
    <g id="text_21">
     <!-- 'tut8_04' annualized = 252,142 -->
     <g transform="translate(328.40476 87.024235)scale(0.08 -0.08)">
      <use xlink:href="#DejaVuSerif-39"/>
      <use x="27.490234" xlink:href="#DejaVuSerif-116"/>
      <use x="67.675781" xlink:href="#DejaVuSerif-117"/>
      <use x="132.080078" xlink:href="#DejaVuSerif-116"/>
      <use x="172.265625" xlink:href="#DejaVuSerif-56"/>
      <use x="235.888672" xlink:href="#DejaVuSerif-95"/>
      <use x="285.888672" xlink:href="#DejaVuSerif-48"/>
      <use x="349.511719" xlink:href="#DejaVuSerif-52"/>
      <use x="413.134766" xlink:href="#DejaVuSerif-39"/>
      <use x="440.625" xlink:href="#DejaVuSerif-32"/>
      <use x="472.412109" xlink:href="#DejaVuSerif-97"/>
      <use x="532.03125" xlink:href="#DejaVuSerif-110"/>
      <use x="596.435547" xlink:href="#DejaVuSerif-110"/>
      <use x="660.839844" xlink:href="#DejaVuSerif-117"/>
      <use x="725.244141" xlink:href="#DejaVuSerif-97"/>
      <use x="784.863281" xlink:href="#DejaVuSerif-108"/>
      <use x="816.845703" xlink:href="#DejaVuSerif-105"/>
      <use x="848.828125" xlink:href="#DejaVuSerif-122"/>
      <use x="901.513672" xlink:href="#DejaVuSerif-101"/>
      <use x="960.693359" xlink:href="#DejaVuSerif-100"/>
      <use x="1024.707031" xlink:href="#DejaVuSerif-32"/>
      <use x="1056.494141" xlink:href="#DejaVuSerif-61"/>
      <use x="1140.283203" xlink:href="#DejaVuSerif-32"/>
      <use x="1172.070312" xlink:href="#DejaVuSerif-50"/>
      <use x="1235.693359" xlink:href="#DejaVuSerif-53"/>
      <use x="1299.316406" xlink:href="#DejaVuSerif-50"/>
      <use x="1362.939453" xlink:href="#DejaVuSerif-44"/>
      <use x="1394.726562" xlink:href="#DejaVuSerif-49"/>
      <use x="1458.349609" xlink:href="#DejaVuSerif-52"/>
      <use x="1521.972656" xlink:href="#DejaVuSerif-50"/>
     </g>
    </g>
   </g>
  </g>
  <g id="text_22">
   <!-- sensi1 Impacts-ARI plot for 5 scenarios -->
   <defs>
    <path d="M 5.609375 2.875 
L 5.609375 14.984375 
L 10.796875 14.984375 
Q 10.984375 9.1875 14.421875 6.296875 
Q 17.875 3.421875 24.609375 3.421875 
Q 30.671875 3.421875 33.84375 5.6875 
Q 37.015625 7.953125 37.015625 12.3125 
Q 37.015625 15.71875 34.6875 17.8125 
Q 32.375 19.921875 24.90625 22.3125 
L 18.40625 24.515625 
Q 11.71875 26.65625 8.71875 29.875 
Q 5.71875 33.109375 5.71875 38.09375 
Q 5.71875 45.21875 10.9375 49.265625 
Q 16.15625 53.328125 25.390625 53.328125 
Q 29.5 53.328125 34.03125 52.25 
Q 38.578125 51.171875 43.40625 49.125 
L 43.40625 37.796875 
L 38.234375 37.796875 
Q 38.03125 42.828125 34.703125 45.65625 
Q 31.390625 48.484375 25.6875 48.484375 
Q 20.015625 48.484375 17.109375 46.484375 
Q 14.203125 44.484375 14.203125 40.484375 
Q 14.203125 37.203125 16.40625 35.21875 
Q 18.609375 33.25 25.203125 31.203125 
L 32.328125 29 
Q 39.703125 26.703125 42.9375 23.265625 
Q 46.1875 19.828125 46.1875 14.40625 
Q 46.1875 7.03125 40.546875 2.796875 
Q 34.90625 -1.421875 25 -1.421875 
Q 19.96875 -1.421875 15.1875 -0.34375 
Q 10.40625 0.734375 5.609375 2.875 
z
" id="DejaVuSerif-115"/>
    <path d="M 51.8125 41.796875 
Q 54.390625 47.515625 58.421875 50.421875 
Q 62.453125 53.328125 67.828125 53.328125 
Q 75.984375 53.328125 79.984375 48.265625 
Q 83.984375 43.21875 83.984375 33.015625 
L 83.984375 5.171875 
L 92.09375 5.171875 
L 92.09375 0 
L 67.1875 0 
L 67.1875 5.171875 
L 75 5.171875 
L 75 31.984375 
Q 75 39.9375 72.65625 43.3125 
Q 70.3125 46.6875 64.890625 46.6875 
Q 58.890625 46.6875 55.734375 42.140625 
Q 52.59375 37.59375 52.59375 28.90625 
L 52.59375 5.171875 
L 60.40625 5.171875 
L 60.40625 0 
L 35.796875 0 
L 35.796875 5.171875 
L 43.609375 5.171875 
L 43.609375 32.328125 
Q 43.609375 40.09375 41.265625 43.390625 
Q 38.921875 46.6875 33.5 46.6875 
Q 27.484375 46.6875 24.328125 42.140625 
Q 21.1875 37.59375 21.1875 28.90625 
L 21.1875 5.171875 
L 29 5.171875 
L 29 0 
L 4.109375 0 
L 4.109375 5.171875 
L 12.203125 5.171875 
L 12.203125 46.78125 
L 3.609375 46.78125 
L 3.609375 51.90625 
L 21.1875 51.90625 
L 21.1875 42.671875 
Q 23.6875 47.859375 27.53125 50.59375 
Q 31.390625 53.328125 36.28125 53.328125 
Q 42.328125 53.328125 46.375 50.3125 
Q 50.4375 47.3125 51.8125 41.796875 
z
" id="DejaVuSerif-109"/>
    <path d="M 20.515625 28.515625 
L 20.515625 23.390625 
Q 20.515625 14.015625 24.09375 9.109375 
Q 27.6875 4.203125 34.515625 4.203125 
Q 41.40625 4.203125 44.9375 9.71875 
Q 48.484375 15.234375 48.484375 25.984375 
Q 48.484375 36.765625 44.9375 42.234375 
Q 41.40625 47.703125 34.515625 47.703125 
Q 27.6875 47.703125 24.09375 42.765625 
Q 20.515625 37.84375 20.515625 28.515625 
z
M 11.53125 46.6875 
L 2.875 46.6875 
L 2.875 51.90625 
L 20.515625 51.90625 
L 20.515625 43.796875 
Q 23.140625 48.6875 27.21875 51 
Q 31.296875 53.328125 37.3125 53.328125 
Q 46.875 53.328125 52.921875 45.75 
Q 58.984375 38.1875 58.984375 25.984375 
Q 58.984375 13.765625 52.921875 6.171875 
Q 46.875 -1.421875 37.3125 -1.421875 
Q 31.296875 -1.421875 27.21875 0.890625 
Q 23.140625 3.21875 20.515625 8.109375 
L 20.515625 -15.578125 
L 29 -15.578125 
L 29 -20.796875 
L 2.875 -20.796875 
L 2.875 -15.578125 
L 11.53125 -15.578125 
z
" id="DejaVuSerif-112"/>
    <path d="M 51.421875 15.578125 
Q 49.515625 7.28125 44.09375 2.921875 
Q 38.671875 -1.421875 30.078125 -1.421875 
Q 18.75 -1.421875 11.859375 6.078125 
Q 4.984375 13.578125 4.984375 25.984375 
Q 4.984375 38.421875 11.859375 45.875 
Q 18.75 53.328125 30.078125 53.328125 
Q 35.015625 53.328125 39.890625 52.171875 
Q 44.78125 51.03125 49.703125 48.6875 
L 49.703125 35.40625 
L 44.484375 35.40625 
Q 43.453125 42.234375 40.015625 45.359375 
Q 36.578125 48.484375 30.171875 48.484375 
Q 22.90625 48.484375 19.1875 42.84375 
Q 15.484375 37.203125 15.484375 25.984375 
Q 15.484375 14.75 19.171875 9.078125 
Q 22.859375 3.421875 30.171875 3.421875 
Q 35.984375 3.421875 39.453125 6.4375 
Q 42.921875 9.46875 44.1875 15.578125 
z
" id="DejaVuSerif-99"/>
    <path d="M 4.390625 30.609375 
L 29.390625 30.609375 
L 29.390625 23 
L 4.390625 23 
z
" id="DejaVuSerif-45"/>
    <path d="M 30.078125 3.421875 
Q 37.3125 3.421875 40.984375 9.125 
Q 44.671875 14.84375 44.671875 25.984375 
Q 44.671875 37.109375 40.984375 42.796875 
Q 37.3125 48.484375 30.078125 48.484375 
Q 22.859375 48.484375 19.171875 42.796875 
Q 15.484375 37.109375 15.484375 25.984375 
Q 15.484375 14.84375 19.1875 9.125 
Q 22.90625 3.421875 30.078125 3.421875 
z
M 30.078125 -1.421875 
Q 18.75 -1.421875 11.859375 6.078125 
Q 4.984375 13.578125 4.984375 25.984375 
Q 4.984375 38.375 11.84375 45.84375 
Q 18.703125 53.328125 30.078125 53.328125 
Q 41.453125 53.328125 48.3125 45.84375 
Q 55.171875 38.375 55.171875 25.984375 
Q 55.171875 13.578125 48.3125 6.078125 
Q 41.453125 -1.421875 30.078125 -1.421875 
z
" id="DejaVuSerif-111"/>
    <path d="M 43.015625 63.71875 
L 38.28125 63.71875 
Q 38.234375 67.390625 36.203125 69.28125 
Q 34.1875 71.1875 30.328125 71.1875 
Q 25.296875 71.1875 23.234375 68.421875 
Q 21.1875 65.671875 21.1875 58.59375 
L 21.1875 51.90625 
L 35.6875 51.90625 
L 35.6875 46.6875 
L 21.1875 46.6875 
L 21.1875 5.171875 
L 32.71875 5.171875 
L 32.71875 0 
L 3.609375 0 
L 3.609375 5.171875 
L 12.203125 5.171875 
L 12.203125 46.6875 
L 3.609375 46.6875 
L 3.609375 51.90625 
L 12.203125 51.90625 
L 12.203125 58.40625 
Q 12.203125 67.09375 16.71875 71.53125 
Q 21.234375 75.984375 29.984375 75.984375 
Q 33.25 75.984375 36.515625 75.390625 
Q 39.796875 74.8125 43.015625 73.578125 
z
" id="DejaVuSerif-102"/>
    <path d="M 47.796875 52 
L 47.796875 39.015625 
L 42.625 39.015625 
Q 42.390625 42.875 40.484375 44.78125 
Q 38.578125 46.6875 34.90625 46.6875 
Q 28.265625 46.6875 24.71875 42.09375 
Q 21.1875 37.5 21.1875 28.90625 
L 21.1875 5.171875 
L 31.59375 5.171875 
L 31.59375 0 
L 4.109375 0 
L 4.109375 5.171875 
L 12.203125 5.171875 
L 12.203125 46.78125 
L 3.609375 46.78125 
L 3.609375 51.90625 
L 21.1875 51.90625 
L 21.1875 42.671875 
Q 23.828125 48.09375 27.96875 50.703125 
Q 32.125 53.328125 38.09375 53.328125 
Q 40.28125 53.328125 42.703125 52.984375 
Q 45.125 52.640625 47.796875 52 
z
" id="DejaVuSerif-114"/>
   </defs>
   <g transform="translate(138.294 10.29474)scale(0.096 -0.096)">
    <use xlink:href="#DejaVuSerif-115"/>
    <use x="51.318359" xlink:href="#DejaVuSerif-101"/>
    <use x="110.498047" xlink:href="#DejaVuSerif-110"/>
    <use x="174.902344" xlink:href="#DejaVuSerif-115"/>
    <use x="226.220703" xlink:href="#DejaVuSerif-105"/>
    <use x="258.203125" xlink:href="#DejaVuSerif-49"/>
    <use x="321.826172" xlink:href="#DejaVuSerif-32"/>
    <use x="353.613281" xlink:href="#DejaVuSerif-73"/>
    <use x="393.115234" xlink:href="#DejaVuSerif-109"/>
    <use x="487.939453" xlink:href="#DejaVuSerif-112"/>
    <use x="551.953125" xlink:href="#DejaVuSerif-97"/>
    <use x="611.572266" xlink:href="#DejaVuSerif-99"/>
    <use x="667.578125" xlink:href="#DejaVuSerif-116"/>
    <use x="707.763672" xlink:href="#DejaVuSerif-115"/>
    <use x="759.082031" xlink:href="#DejaVuSerif-45"/>
    <use x="792.871094" xlink:href="#DejaVuSerif-65"/>
    <use x="865.087891" xlink:href="#DejaVuSerif-82"/>
    <use x="940.380859" xlink:href="#DejaVuSerif-73"/>
    <use x="979.882812" xlink:href="#DejaVuSerif-32"/>
    <use x="1011.669922" xlink:href="#DejaVuSerif-112"/>
    <use x="1075.683594" xlink:href="#DejaVuSerif-108"/>
    <use x="1107.666016" xlink:href="#DejaVuSerif-111"/>
    <use x="1167.871094" xlink:href="#DejaVuSerif-116"/>
    <use x="1208.056641" xlink:href="#DejaVuSerif-32"/>
    <use x="1239.84375" xlink:href="#DejaVuSerif-102"/>
    <use x="1276.855469" xlink:href="#DejaVuSerif-111"/>
    <use x="1337.060547" xlink:href="#DejaVuSerif-114"/>
    <use x="1384.863281" xlink:href="#DejaVuSerif-32"/>
    <use x="1416.650391" xlink:href="#DejaVuSerif-53"/>
    <use x="1480.273438" xlink:href="#DejaVuSerif-32"/>
    <use x="1512.060547" xlink:href="#DejaVuSerif-115"/>
    <use x="1563.378906" xlink:href="#DejaVuSerif-99"/>
    <use x="1619.384766" xlink:href="#DejaVuSerif-101"/>
    <use x="1678.564453" xlink:href="#DejaVuSerif-110"/>
    <use x="1742.96875" xlink:href="#DejaVuSerif-97"/>
    <use x="1802.587891" xlink:href="#DejaVuSerif-114"/>
    <use x="1850.390625" xlink:href="#DejaVuSerif-105"/>
    <use x="1882.373047" xlink:href="#DejaVuSerif-111"/>
    <use x="1942.578125" xlink:href="#DejaVuSerif-115"/>
   </g>
  </g>
 </g>
 <defs>
  <clipPath id="pfe0d05c56c">
   <rect height="232.406775" width="399.99702" x="62.45774" y="26.107985"/>
  </clipPath>
 </defs>
</svg>
