<?xml version="1.0" encoding="UTF-8" standalone="no"?>
<!-- Generator: Adobe Illustrator 25.0.0, SVG Export Plug-In . SVG Version: 6.00 Build 0)  -->

<svg
   xmlns:dc="http://purl.org/dc/elements/1.1/"
   xmlns:cc="http://creativecommons.org/ns#"
   xmlns:rdf="http://www.w3.org/1999/02/22-rdf-syntax-ns#"
   xmlns:svg="http://www.w3.org/2000/svg"
   xmlns="http://www.w3.org/2000/svg"
   xmlns:sodipodi="http://sodipodi.sourceforge.net/DTD/sodipodi-0.dtd"
   xmlns:inkscape="http://www.inkscape.org/namespaces/inkscape"
   version="1.1"
   id="Layer_1"
   x="0px"
   y="0px"
   viewBox="0 0 413.62 359.49"
   style="enable-background:new 0 0 413.62 359.49;"
   xml:space="preserve"
   sodipodi:docname="CanFlood Logo-Final_20210510.svg"
   inkscape:version="0.92.4 (5da689c313, 2019-01-14)"><metadata
   id="metadata43"><rdf:RDF><cc:Work
       rdf:about=""><dc:format>image/svg+xml</dc:format><dc:type
         rdf:resource="http://purl.org/dc/dcmitype/StillImage" /><dc:title></dc:title></cc:Work></rdf:RDF></metadata><defs
   id="defs41" /><sodipodi:namedview
   pagecolor="#ffffff"
   bordercolor="#666666"
   borderopacity="1"
   objecttolerance="10"
   gridtolerance="10"
   guidetolerance="10"
   inkscape:pageopacity="0"
   inkscape:pageshadow="2"
   inkscape:window-width="2560"
   inkscape:window-height="1377"
   id="namedview39"
   showgrid="false"
   inkscape:zoom="1.3129712"
   inkscape:cx="110.97647"
   inkscape:cy="150.75976"
   inkscape:window-x="1912"
   inkscape:window-y="-8"
   inkscape:window-maximized="1"
   inkscape:current-layer="Layer_1" />
<style
   type="text/css"
   id="style2">
	.st0{fill-rule:evenodd;clip-rule:evenodd;fill:#EE2B2C;}
	.st1{fill:url(#XMLID_3_);stroke:#FFFFFF;stroke-width:4;stroke-miterlimit:10;}
	.st2{fill:#FFFFFF;stroke:#FFFFFF;stroke-width:9;stroke-miterlimit:10;}
	.st3{fill:#2B3990;}
	.st4{fill:url(#XMLID_6_);stroke:#FFFFFF;stroke-width:5;stroke-miterlimit:10;}
	.st5{fill:url(#XMLID_7_);}
</style>
<g
   id="g36"
   transform="matrix(1.1976553,0,0,1.1976553,-45.867414,-45.302327)">
	<path
   class="st0"
   d="m 195.45,140.51 c -3.43,4.2 -9.35,4.2 -7.67,-5.11 l 9.35,-52.61 -12.75,6.8 c -3.36,1.68 -8.48,-1.72 -8.48,-1.72 L 158.07,53.93 140.28,87.87 c -1.72,4.27 -5.11,3.4 -9.35,1.72 l -12.71,-6.8 10.16,52.61 c 1.72,9.32 -5.08,9.32 -7.6,5.11 l -22.94,-25.46 -3.4,12.72 c 0,1.68 -2.56,3.43 -5.08,3.43 l -28.02,-5.99 7.67,28.02 c 1.68,5.96 2.52,8.51 -1.72,10.19 l -10.19,5.08 48.37,40.73 c 1.72,1.72 3.4,4.28 2.56,6.8 l -4.24,14.43 c 16.11,-1.68 31.38,-3.36 48.37,-5.08 0.84,0 3.4,0.87 3.4,2.56"
   id="path4"
   inkscape:connector-curvature="0"
   style="clip-rule:evenodd;fill:#ee2b2c;fill-rule:evenodd" />
	<linearGradient
   id="XMLID_3_"
   gradientUnits="userSpaceOnUse"
   x1="147.9348"
   y1="287.77328"
   x2="204.6156"
   y2="192.79449">
		<stop
   offset="0"
   style="stop-color:#1C75BC"
   id="stop6" />
		<stop
   offset="1"
   style="stop-color:#27AAE1"
   id="stop8" />
	</linearGradient>
	<path
   id="XMLID_1_"
   class="st1"
   d="m 356.7,209.35 c 0,0 -99.64,-89.06 -177.78,-24.02 -8.05,6.7 -51.9,60.06 -150.31,30.98 0,0 87,61.96 170.12,5 78.7,-53.93 157.97,-11.96 157.97,-11.96 z"
   style="fill:url(#XMLID_3_);stroke:#ffffff;stroke-width:4;stroke-miterlimit:10"
   inkscape:connector-curvature="0" />
	<g
   id="g16">
		<path
   class="st2"
   d="m 282.92,225.89 c -16.31,0 -110,34.92 -126.67,34.92 0,-1.61 0,-3.35 0,-5.09 0,-26.05 0.04,-52.09 -0.06,-78.14 -0.01,-3.05 0.73,-5.08 3.26,-7.09 19.75,-15.67 39.38,-31.48 58.93,-47.38 2.76,-2.24 4.55,-2.54 7.51,-0.13 19.53,15.94 39.27,31.62 58.8,47.54 1.69,1.38 3.42,3.92 3.43,5.94 0.22,27.37 0.14,20.75 0.12,48.12 0,0.63 -5.17,0.28 -5.32,1.31 z"
   id="path12"
   inkscape:connector-curvature="0"
   style="fill:#ffffff;stroke:#ffffff;stroke-width:9;stroke-miterlimit:10" />
		<path
   class="st2"
   d="m 222.5,116.96 c 13.47,10.94 19.43,14.74 36.16,28.92 l -0.04,-17.14 15.32,0.7 v 29.85 c 1.83,1.53 14.34,13.31 14.34,13.31 l -0.17,7.54 c -11.76,-3.67 -49.96,-28.36 -65.91,-41.29 -27.08,21.96 -38.15,27.3 -65.88,49.79 0,-7.4 -0.39,-13.5 -0.23,-19.9 l -0.06,-1.5 c 26.37,-21.47 38.94,-28.38 65.36,-49.79 0.24,-0.19 0.59,-0.26 1.11,-0.49 z"
   id="path14"
   inkscape:connector-curvature="0"
   style="fill:#ffffff;stroke:#ffffff;stroke-width:9;stroke-miterlimit:10" />
	</g>
	<g
   id="g22">
		<path
   class="st3"
   d="m 282.92,224.89 c -16.31,0 -110,34.92 -126.67,34.92 0,-1.61 0,-3.35 0,-5.09 0,-26.05 0.04,-52.09 -0.06,-78.14 -0.01,-3.05 0.73,-5.08 3.26,-7.09 19.75,-15.67 39.38,-31.48 58.93,-47.38 2.76,-2.24 4.55,-2.54 7.51,-0.13 19.53,15.94 39.27,31.62 58.8,47.54 1.69,1.38 3.42,3.92 3.43,5.94 0.22,27.37 0.14,20.75 0.12,48.12 0,0.63 -5.17,0.28 -5.32,1.31 z"
   id="path18"
   inkscape:connector-curvature="0"
   style="fill:#2b3990" />
		<path
   class="st3"
   d="m 222.5,115.96 c 13.47,10.94 19.43,14.74 36.16,28.92 l -0.04,-17.14 15.32,0.7 v 29.85 c 1.83,1.53 14.34,13.31 14.34,13.31 l -0.17,7.54 c -11.76,-3.67 -49.96,-28.36 -65.91,-41.29 -27.08,21.96 -38.12,28.59 -65.85,51.09 0,-7.4 -0.31,-13.81 -0.15,-20.21 l -0.06,-1.5 c 26.37,-21.47 38.82,-29.36 65.25,-50.77 0.24,-0.2 0.59,-0.27 1.11,-0.5 z"
   id="path20"
   inkscape:connector-curvature="0"
   style="fill:#2b3990" />
	</g>
	<linearGradient
   id="XMLID_6_"
   gradientUnits="userSpaceOnUse"
   x1="164.1843"
   y1="300.90201"
   x2="220.8652"
   y2="205.92329">
		<stop
   offset="0"
   style="stop-color:#1C75BC"
   id="stop24" />
		<stop
   offset="1"
   style="stop-color:#27AAE1"
   id="stop26" />
	</linearGradient>
	<path
   id="XMLID_5_"
   class="st4"
   d="m 381.65,231.41 c 0,0 -51.92,-60.33 -165.81,-0.6 -75.18,39.43 -143.11,24.62 -183.6,-3.7 0,0 62.45,97 184.89,34.67 112.02,-57.03 164.52,-30.37 164.52,-30.37 z"
   style="fill:url(#XMLID_6_);stroke:#ffffff;stroke-width:5;stroke-miterlimit:10"
   inkscape:connector-curvature="0" />
	<linearGradient
   id="XMLID_7_"
   gradientUnits="userSpaceOnUse"
   x1="213.2148"
   y1="328.32141"
   x2="269.8956"
   y2="233.3427">
		<stop
   offset="0"
   style="stop-color:#1C75BC"
   id="stop30" />
		<stop
   offset="1"
   style="stop-color:#27AAE1"
   id="stop32" />
	</linearGradient>
	<path
   id="XMLID_4_"
   class="st5"
   d="m 121.52,289.27 c 28.67,19.53 91.73,11.11 135.8,-14.28 54.68,-31.5 100.45,-38.52 125.8,-38.68 -26.25,-8.57 -77.75,-8.96 -130.98,19.47 -43.57,23.27 -78.69,41.28 -130.62,33.49 z"
   style="fill:url(#XMLID_7_)"
   inkscape:connector-curvature="0" />
</g>
</svg>